<svg width="61" height="58" viewBox="0 0 61 58" fill="none" xmlns="http://www.w3.org/2000/svg">
<path d="M2.88755 8.65718C2.88755 6.39147 3.71096 4.21856 5.17665 2.61646C6.64234 1.01437 8.63023 0.114319 10.703 0.114319H52.7791C54.8519 0.114319 56.8398 1.01437 58.3055 2.61646C59.7712 4.21856 60.5946 6.39147 60.5946 8.65718V44.1429C60.5946 46.4086 59.7712 48.5815 58.3055 50.1836C56.8398 51.7857 54.8519 52.6857 52.7791 52.6857H32.8773L29.2702 48.7429H52.7791C53.8953 48.7429 54.9657 48.2582 55.7549 47.3956C56.5441 46.5329 56.9875 45.3629 56.9875 44.1429V8.65718C56.9875 7.43718 56.5441 6.26715 55.7549 5.40448C54.9657 4.54182 53.8953 4.05718 52.7791 4.05718H10.703C9.58691 4.05718 8.5165 4.54182 7.72728 5.40448C6.93807 6.26715 6.49469 7.43718 6.49469 8.65718V23.0617C5.17207 23.8161 3.95767 24.7703 2.88755 25.8875V8.65718ZM26.0214 27.7143C24.9094 26.1594 23.5607 24.8256 22.0343 23.7715H46.7648C47.2432 23.7715 47.7019 23.9792 48.0402 24.3489C48.3784 24.7186 48.5684 25.22 48.5684 25.7429C48.5684 26.2657 48.3784 26.7672 48.0402 27.1369C47.7019 27.5066 47.2432 27.7143 46.7648 27.7143H26.0214ZM29.3303 38.2286H41.9553C42.4336 38.2286 42.8924 38.0209 43.2306 37.6512C43.5689 37.2815 43.7589 36.78 43.7589 36.2572C43.7589 35.7343 43.5689 35.2329 43.2306 34.8632C42.8924 34.4934 42.4336 34.2857 41.9553 34.2857H28.9119C29.186 35.5527 29.3303 36.8723 29.3303 38.2286ZM14.9017 15.2286C14.9017 14.7057 15.0918 14.2043 15.43 13.8346C15.7682 13.4649 16.227 13.2572 16.7053 13.2572H34.741C35.2194 13.2572 35.6781 13.4649 36.0163 13.8346C36.3546 14.2043 36.5446 14.7057 36.5446 15.2286C36.5446 15.7515 36.3546 16.2529 36.0163 16.6226C35.6781 16.9923 35.2194 17.2 34.741 17.2H16.7053C16.227 17.2 15.7682 16.9923 15.43 16.6226C15.0918 16.2529 14.9017 15.7515 14.9017 15.2286ZM24.2394 46.9633C26.2642 44.0441 27.1996 40.3936 26.8566 36.7495C26.5136 33.1053 24.9177 29.7395 22.3916 27.332C19.8654 24.9246 16.5974 23.6552 13.2479 23.7804C9.89843 23.9056 6.71732 25.416 4.3475 28.0064C1.97768 30.5968 0.59588 34.0739 0.481363 37.7351C0.366847 41.3963 1.52816 44.9685 3.73059 47.7298C5.93302 50.491 9.01232 52.2354 12.3461 52.6103C15.68 52.9853 19.0197 51.9628 21.6904 49.7496L28.657 57.3646C28.8221 57.5583 29.0212 57.7136 29.2424 57.8214C29.4637 57.9291 29.7025 57.9871 29.9447 57.9918C30.1868 57.9964 30.4274 57.9477 30.652 57.8486C30.8765 57.7494 31.0805 57.6018 31.2518 57.4146C31.4231 57.2274 31.5581 57.0044 31.6488 56.759C31.7395 56.5135 31.7841 56.2506 31.7798 55.9859C31.7755 55.7212 31.7225 55.4601 31.6239 55.2183C31.5254 54.9764 31.3832 54.7588 31.206 54.5783L24.2394 46.9633ZM23.3184 38.2286C23.3184 41.0172 22.305 43.6915 20.5011 45.6633C18.6971 47.6351 16.2505 48.7429 13.6994 48.7429C11.1482 48.7429 8.70159 47.6351 6.89767 45.6633C5.09374 43.6915 4.08031 41.0172 4.08031 38.2286C4.08031 35.44 5.09374 32.7657 6.89767 30.7939C8.70159 28.8221 11.1482 27.7143 13.6994 27.7143C16.2505 27.7143 18.6971 28.8221 20.5011 30.7939C22.305 32.7657 23.3184 35.44 23.3184 38.2286Z" fill="black"/>
</svg>
