<svg width="48" height="52" viewBox="0 0 48 52" fill="none" xmlns="http://www.w3.org/2000/svg">
<path d="M6.89808 3.77691H31.9435C32.7738 3.77691 33.5701 4.09055 34.1573 4.64883C34.7444 5.20711 35.0742 5.9643 35.0742 6.75383V21.7039C36.1334 21.7952 37.1815 21.9796 38.2049 22.2547V6.75383C38.2049 5.17478 37.5452 3.66039 36.371 2.54383C35.1968 1.42727 33.6042 0.799988 31.9435 0.799988H6.89808C5.23747 0.799988 3.64486 1.42727 2.47063 2.54383C1.2964 3.66039 0.636719 5.17478 0.636719 6.75383V42.4769C0.636719 44.056 1.2964 45.5704 2.47063 46.6869C3.64486 47.8035 5.23747 48.4308 6.89808 48.4308H20.2254C19.428 47.5125 18.7383 46.5143 18.1685 45.4538H6.89808C6.06777 45.4538 5.27147 45.1402 4.68436 44.5819C4.09724 44.0236 3.7674 43.2664 3.7674 42.4769H16.9382C16.6485 41.5038 16.4546 40.5072 16.359 39.5H3.7674V6.75383C3.7674 5.9643 4.09724 5.20711 4.68436 4.64883C5.27147 4.09055 6.06777 3.77691 6.89808 3.77691ZM10.0288 6.75383C9.19846 6.75383 8.40215 7.06747 7.81504 7.62575C7.22792 8.18404 6.89808 8.94123 6.89808 9.73076V12.7077C6.89808 13.4972 7.22792 14.2544 7.81504 14.8127C8.40215 15.371 9.19846 15.6846 10.0288 15.6846H28.8129C29.6432 15.6846 30.4395 15.371 31.0266 14.8127C31.6137 14.2544 31.9435 13.4972 31.9435 12.7077V9.73076C31.9435 8.94123 31.6137 8.18404 31.0266 7.62575C30.4395 7.06747 29.6432 6.75383 28.8129 6.75383H10.0288ZM28.8129 9.73076V12.7077H10.0288V9.73076H28.8129ZM47.5969 38.0115C47.5969 41.5644 46.1127 44.9718 43.4706 47.484C40.8286 49.9963 37.2453 51.4077 33.5089 51.4077C29.7725 51.4077 26.1891 49.9963 23.5471 47.484C20.9051 44.9718 19.4208 41.5644 19.4208 38.0115C19.4208 34.4586 20.9051 31.0513 23.5471 28.539C26.1891 26.0267 29.7725 24.6154 33.5089 24.6154C37.2453 24.6154 40.8286 26.0267 43.4706 28.539C46.1127 31.0513 47.5969 34.4586 47.5969 38.0115ZM32.0062 32.1589C31.8031 32.0263 31.5673 31.9464 31.3218 31.9271C31.0764 31.9078 30.8299 31.9497 30.6067 32.0487C30.4246 32.125 30.2598 32.2342 30.1215 32.3703C29.8298 32.6544 29.6669 33.0359 29.6675 33.433V42.5871C29.6656 42.7844 29.7047 42.9801 29.7826 43.163C29.8605 43.3459 29.9757 43.5124 30.1215 43.6528C30.2644 43.7879 30.4306 43.8987 30.613 43.9803C30.9306 44.1186 31.291 44.1399 31.6242 44.0398C31.7685 43.9946 31.9055 43.9305 32.0312 43.8493L39.2192 39.1844C39.438 39.0474 39.6141 38.8573 39.7295 38.6337C39.8485 38.4085 39.9096 38.1597 39.908 37.9077C39.9064 37.6558 39.842 37.4077 39.7201 37.1839C39.5977 36.9636 39.4177 36.777 39.1973 36.6421L32.0062 32.1589Z" fill="black"/>
</svg>
