<svg width="53" height="53" viewBox="0 0 53 53" fill="none" xmlns="http://www.w3.org/2000/svg">
<path d="M39.1433 0.42627H13.1232C5.95442 0.42627 0.12207 6.2213 0.12207 13.3442V39.4096C0.12207 46.532 5.95442 52.3277 13.1232 52.3277H39.1433C46.312 52.3277 52.1442 46.532 52.1442 39.4096V13.3441C52.1442 6.2213 46.312 0.426322 39.1433 0.426322V0.42627ZM47.3292 39.4095C47.3292 43.894 43.6572 47.5431 39.1433 47.5431H13.1232C8.60941 47.5431 4.93734 43.894 4.93734 39.4095V22.5748H15.2233C14.4723 24.1583 14.05 25.9248 14.05 27.7877C14.05 34.554 19.5898 40.058 26.3994 40.058C33.2088 40.058 38.7488 34.554 38.7488 27.7877C38.7488 25.9248 38.3265 24.1583 37.5754 22.5748H47.3291V39.4095H47.3292ZM21.2729 27.7878C21.2729 24.9795 23.5726 22.6943 26.3995 22.6943C29.2265 22.6943 31.526 24.9796 31.526 27.7878C31.526 30.5967 29.2265 32.8815 26.3995 32.8815C23.5726 32.8814 21.2729 30.5967 21.2729 27.7878ZM47.3292 17.7905H33.5461C31.5269 16.3618 29.0615 15.5177 26.3995 15.5177C23.7374 15.5177 21.2717 16.3618 19.253 17.7905H4.93734V13.3442C4.93734 8.85926 8.60941 5.2107 13.1232 5.2107H39.1433C43.6572 5.2107 47.3292 8.85926 47.3292 13.3442V17.7905H47.3292H47.3292ZM42.1114 8.11237H37.6479C36.8532 8.11237 36.2034 8.7583 36.2034 9.54769V13.9828C36.2034 14.7722 36.8532 15.4181 37.6479 15.4181H42.1114C42.9061 15.4181 43.556 14.7722 43.556 13.9828V9.54769C43.556 8.7583 42.9062 8.11237 42.1114 8.11237Z" fill="black"/>
</svg>
