<svg width="58" height="46" viewBox="0 0 58 46" fill="none" xmlns="http://www.w3.org/2000/svg">
<path d="M36.695 30.3672C39.454 30.3672 41.6932 32.3348 41.6932 34.759L41.6903 37.1733C42.0245 42.6693 37.3748 45.4475 29.0322 45.4475C20.7211 45.4475 15.9886 42.712 15.9886 37.2687V34.759C15.9886 32.3348 18.2278 30.3672 20.9867 30.3672H36.695ZM36.695 34.1316H20.9867C20.7973 34.1316 20.6157 34.1977 20.4818 34.3154C20.3479 34.4331 20.2727 34.5926 20.2727 34.759V37.2687C20.2727 40.22 22.806 41.6831 29.0322 41.6831C35.2242 41.6831 37.5861 40.2677 37.4091 37.2737V34.759C37.4091 34.5926 37.3338 34.4331 37.1999 34.3154C37.066 34.1977 36.8844 34.1316 36.695 34.1316ZM5.27838 17.8191H17.7765C17.4166 19.0477 17.3246 20.3249 17.5052 21.5836H5.27838C5.08901 21.5836 4.9074 21.6497 4.77349 21.7673C4.63959 21.885 4.56436 22.0446 4.56436 22.211V24.7206C4.56436 27.6719 7.09769 29.135 13.3239 29.135C14.6434 29.135 15.7887 29.0697 16.7712 28.9418C15.137 29.8515 13.9437 31.2603 13.421 32.8969L13.3239 32.8994C5.01277 32.8994 0.280273 30.1639 0.280273 24.7206V22.211C0.280273 19.7867 2.51942 17.8191 5.27838 17.8191ZM52.4034 17.8191C55.1623 17.8191 57.4015 19.7867 57.4015 22.211L57.3986 24.6252C57.7328 30.1213 53.0831 32.8994 44.7406 32.8994L44.2579 32.8944C43.7194 31.213 42.4765 29.7731 40.7792 28.864C41.8845 29.0446 43.1983 29.135 44.7406 29.135C50.9325 29.135 53.2945 27.7196 53.1174 24.7256V22.211C53.1174 22.0446 53.0422 21.885 52.9083 21.7673C52.7744 21.6497 52.5928 21.5836 52.4034 21.5836H40.1794C40.3562 20.3247 40.2632 19.0479 39.9053 17.8191H52.4034ZM28.8409 12.7999C29.9661 12.7999 31.0802 12.9946 32.1198 13.373C33.1593 13.7514 34.1039 14.3059 34.8995 15.0051C35.6951 15.7042 36.3263 16.5341 36.7569 17.4476C37.1874 18.361 37.4091 19.3401 37.4091 20.3288C37.4091 21.3175 37.1874 22.2965 36.7569 23.2099C36.3263 24.1234 35.6951 24.9533 34.8995 25.6525C34.1039 26.3516 33.1593 26.9061 32.1198 27.2845C31.0802 27.6629 29.9661 27.8576 28.8409 27.8576C26.5685 27.8576 24.3891 27.0644 22.7823 25.6525C21.1754 24.2405 20.2727 22.3255 20.2727 20.3288C20.2727 18.332 21.1754 16.417 22.7823 15.0051C24.3891 13.5931 26.5685 12.7999 28.8409 12.7999ZM28.8409 16.5643C28.2783 16.5643 27.7212 16.6617 27.2014 16.8509C26.6817 17.0401 26.2094 17.3173 25.8116 17.6669C25.4138 18.0165 25.0982 18.4315 24.8829 18.8882C24.6676 19.3449 24.5568 19.8344 24.5568 20.3288C24.5568 20.8231 24.6676 21.3126 24.8829 21.7693C25.0982 22.2261 25.4138 22.641 25.8116 22.9906C26.2094 23.3402 26.6817 23.6174 27.2014 23.8066C27.7212 23.9958 28.2783 24.0932 28.8409 24.0932C29.9771 24.0932 31.0668 23.6966 31.8702 22.9906C32.6736 22.2846 33.125 21.3271 33.125 20.3288C33.125 19.3304 32.6736 18.3729 31.8702 17.6669C31.0668 16.9609 29.9771 16.5643 28.8409 16.5643ZM13.1325 0.251831C15.405 0.251831 17.5843 1.04505 19.1912 2.45698C20.798 3.86891 21.7007 5.7839 21.7007 7.78068C21.7007 9.77745 20.798 11.6924 19.1912 13.1044C17.5843 14.5163 15.405 15.3095 13.1325 15.3095C10.8601 15.3095 8.68077 14.5163 7.07393 13.1044C5.46708 11.6924 4.56436 9.77745 4.56436 7.78068C4.56436 5.7839 5.46708 3.86891 7.07393 2.45698C8.68077 1.04505 10.8601 0.251831 13.1325 0.251831ZM44.5492 0.251831C46.8216 0.251831 49.001 1.04505 50.6078 2.45698C52.2147 3.86891 53.1174 5.7839 53.1174 7.78068C53.1174 9.77745 52.2147 11.6924 50.6078 13.1044C49.001 14.5163 46.8216 15.3095 44.5492 15.3095C42.2768 15.3095 40.0974 14.5163 38.4906 13.1044C36.8837 11.6924 35.981 9.77745 35.981 7.78068C35.981 5.7839 36.8837 3.86891 38.4906 2.45698C40.0974 1.04505 42.2768 0.251831 44.5492 0.251831ZM13.1325 4.01625C11.9963 4.01625 10.9067 4.41286 10.1032 5.11883C9.29981 5.82479 8.84846 6.78229 8.84846 7.78068C8.84846 8.77906 9.29981 9.73656 10.1032 10.4425C10.9067 11.1485 11.9963 11.5451 13.1325 11.5451C14.2688 11.5451 15.3584 11.1485 16.1619 10.4425C16.9653 9.73656 17.4166 8.77906 17.4166 7.78068C17.4166 6.78229 16.9653 5.82479 16.1619 5.11883C15.3584 4.41286 14.2688 4.01625 13.1325 4.01625ZM44.5492 4.01625C43.413 4.01625 42.3233 4.41286 41.5199 5.11883C40.7165 5.82479 40.2651 6.78229 40.2651 7.78068C40.2651 8.77906 40.7165 9.73656 41.5199 10.4425C42.3233 11.1485 43.413 11.5451 44.5492 11.5451C45.6854 11.5451 46.7751 11.1485 47.5785 10.4425C48.3819 9.73656 48.8333 8.77906 48.8333 7.78068C48.8333 6.78229 48.3819 5.82479 47.5785 5.11883C46.7751 4.41286 45.6854 4.01625 44.5492 4.01625Z" fill="black"/>
</svg>
