<svg width="40" height="44" viewBox="0 0 40 44" fill="none" xmlns="http://www.w3.org/2000/svg">
<path d="M10 0.333374H2C1.46957 0.333374 0.960859 0.561647 0.585786 0.967976C0.210714 1.3743 0 1.9254 0 2.50004V41.5C0 42.0747 0.210714 42.6258 0.585786 43.0321C0.960859 43.4384 1.46957 43.6667 2 43.6667H10C10.5304 43.6667 11.0391 43.4384 11.4142 43.0321C11.7893 42.6258 12 42.0747 12 41.5V2.50004C12 1.9254 11.7893 1.3743 11.4142 0.967976C11.0391 0.561647 10.5304 0.333374 10 0.333374ZM10 41.5H2V2.50004H10V41.5ZM24 2.50004V17.6667H18V2.50004H24ZM26 0.333374H16V19.8334H26V0.333374ZM38 2.50004V17.6667H32V2.50004H38ZM40 0.333374H30V19.8334H40V0.333374ZM24 26.3334V41.5H18V26.3334H24ZM26 24.1667H16V43.6667H26V24.1667ZM38 26.3334V41.5H32V26.3334H38ZM40 24.1667H30V43.6667H40V24.1667Z" fill="black"/>
</svg>
