<svg width="49" height="48" viewBox="0 0 49 48" fill="none" xmlns="http://www.w3.org/2000/svg">
<path d="M15.925 33C15.742 33 15.559 33.0328 15.3844 33.1022C14.3922 33.4969 13.3486 33.75 12.25 33.75C11.1513 33.75 10.1078 33.4969 9.11474 33.1022C8.94017 33.0328 8.75795 33 8.57497 33C3.8235 33 -0.0252945 37.7325 -2.89028e-05 43.5581C0.0106898 46.02 1.66367 48 3.67497 48H20.825C22.8363 48 24.4893 46.02 24.5 43.5581C24.5252 37.7325 20.6764 33 15.925 33ZM12.25 30C16.3093 30 19.6 25.9706 19.6 21C19.6 16.0294 16.3093 12 12.25 12C8.19063 12 4.89997 16.0294 4.89997 21C4.89997 25.9706 8.19063 30 12.25 30ZM45.325 0H15.925C13.8984 0 12.25 2.08594 12.25 4.64906V9C14.0431 9 15.7029 9.63562 17.15 10.6688V6H44.1V33H39.2V27H29.4V33H23.5628C25.0252 34.5647 26.0986 36.6309 26.6016 39H45.325C47.3516 39 49 36.9141 49 34.3509V4.64906C49 2.08594 47.3516 0 45.325 0Z" fill="black"/>
</svg>
