<svg width="112" height="26" viewBox="0 0 112 26" fill="none" xmlns="http://www.w3.org/2000/svg">
<path d="M80.43 12.4111L78 4.64612L75.57 12.4111H68L74.18 16.6916L71.83 24.0587L78 19.5064L84.18 24.0587L81.83 16.6916L88 12.4111H80.43Z" fill="#FF8A00"/>
<g clip-path="url(#clip0_243_678)">
<path d="M14.43 10.8333L12 2.16663L9.57 10.8333H2L8.18 15.6108L5.83 23.8333L12 18.7525L18.18 23.8333L15.83 15.6108L22 10.8333H14.43Z" fill="#FF8A00"/>
</g>
<g clip-path="url(#clip1_243_678)">
<path d="M36.43 10.8333L34 2.16663L31.57 10.8333H24L30.18 15.6108L27.83 23.8333L34 18.7525L40.18 23.8333L37.83 15.6108L44 10.8333H36.43Z" fill="#FF8A00"/>
<path d="M36.43 10.8333L34 2.16663L31.57 10.8333H24L30.18 15.6108L27.83 23.8333L34 18.7525L40.18 23.8333L37.83 15.6108L44 10.8333H36.43Z" fill="#FF8A00"/>
</g>
<g clip-path="url(#clip2_243_678)">
<path d="M102.43 10.8333L100 2.16663L97.57 10.8333H90L96.18 15.6108L93.83 23.8333L100 18.7525L106.18 23.8333L103.83 15.6108L110 10.8333H102.43Z" fill="#FF8A00"/>
<path d="M102.43 10.8333L100 2.16663L97.57 10.8333H90L96.18 15.6108L93.83 23.8333L100 18.7525L106.18 23.8333L103.83 15.6108L110 10.8333H102.43Z" fill="#FF8A00"/>
</g>
<path d="M59.43 12.4111L57 4.64612L54.57 12.4111H47L53.18 16.6916L50.83 24.0587L57 19.5064L63.18 24.0587L60.83 16.6916L67 12.4111H59.43Z" fill="#FF8A00"/>
<defs>
<clipPath id="clip0_243_678">
<rect width="24" height="26" fill="white"/>
</clipPath>
<clipPath id="clip1_243_678">
<rect width="24" height="26" fill="white" transform="translate(22)"/>
</clipPath>
<clipPath id="clip2_243_678">
<rect width="24" height="26" fill="white" transform="translate(88)"/>
</clipPath>
</defs>
</svg>
