<svg width="43" height="41" viewBox="0 0 43 41" fill="none" xmlns="http://www.w3.org/2000/svg">
<path d="M40.5469 0.578125H2.45312C1.53701 0.578125 0.796875 1.29033 0.796875 2.17188V38.8281C0.796875 39.7097 1.53701 40.4219 2.45312 40.4219H40.5469C41.463 40.4219 42.2031 39.7097 42.2031 38.8281V2.17188C42.2031 1.29033 41.463 0.578125 40.5469 0.578125ZM35.7645 12.2075H32.4571C29.8641 12.2075 29.362 13.3929 29.362 15.136V18.976H35.5522L34.7448 24.9874H29.362V40.4219H22.9078V24.9924H17.5095V18.976H22.9078V14.5434C22.9078 9.39853 26.1737 6.59453 30.9458 6.59453C33.2335 6.59453 35.1951 6.75889 35.7696 6.83359V12.2075H35.7645Z" fill="#6F6F6F"/>
</svg>
