<svg width="51" height="45" viewBox="0 0 51 45" fill="none" xmlns="http://www.w3.org/2000/svg">
<path fill-rule="evenodd" clip-rule="evenodd" d="M15.1073 0.176422C17.7954 0.0661717 18.6525 0.0416718 25.5 0.0416718C32.3475 0.0416718 33.2046 0.0682134 35.8904 0.176422C38.5763 0.28463 40.4096 0.666422 42.0138 1.21971C43.6935 1.78526 45.2175 2.6693 46.4779 3.81263C47.7612 4.9335 48.7513 6.28917 49.3838 7.78776C50.0071 9.21692 50.4333 10.8503 50.5571 13.239C50.6808 15.638 50.7083 16.4015 50.7083 22.5C50.7083 28.6005 50.6785 29.3641 50.5571 31.759C50.4356 34.1477 50.0071 35.781 49.3838 37.2102C48.7512 38.709 47.7596 40.0669 46.4779 41.1894C45.2175 42.3328 43.6935 43.2148 42.0138 43.7783C40.4096 44.3336 38.5763 44.7133 35.895 44.8236C33.2046 44.9338 32.3475 44.9583 25.5 44.9583C18.6525 44.9583 17.7954 44.9318 15.1073 44.8236C12.426 44.7154 10.5927 44.3336 8.98854 43.7783C7.30628 43.2147 5.78209 42.3312 4.52208 41.1894C3.23962 40.0679 2.24718 38.7106 1.61396 37.2122C0.992917 35.7831 0.566667 34.1497 0.442917 31.761C0.319167 29.362 0.291667 28.5985 0.291667 22.5C0.291667 16.3995 0.321459 15.6359 0.442917 13.2431C0.564375 10.8503 0.992917 9.21692 1.61396 7.78776C2.24812 6.28934 3.24131 4.9321 4.52437 3.81059C5.78259 2.66828 7.30525 1.78412 8.98625 1.21971C10.5904 0.666422 12.4238 0.286672 15.105 0.176422H15.1073ZM35.6865 4.21892C33.0281 4.11071 32.2306 4.08825 25.5 4.08825C18.7694 4.08825 17.9719 4.11071 15.3135 4.21892C12.8546 4.31896 11.5208 4.68442 10.6317 4.99271C9.45604 5.40105 8.615 5.88492 7.73271 6.67096C6.89635 7.39586 6.25271 8.27833 5.84896 9.25367C5.50292 10.0458 5.09271 11.2341 4.98042 13.4248C4.85896 15.7931 4.83375 16.5036 4.83375 22.5C4.83375 28.4964 4.85896 29.2069 4.98042 31.5752C5.09271 33.7659 5.50292 34.9542 5.84896 35.7463C6.25229 36.7202 6.89625 37.6043 7.73271 38.329C8.54625 39.0743 9.53854 39.648 10.6317 40.0073C11.5208 40.3156 12.8546 40.681 15.3135 40.7811C17.9719 40.8893 18.7671 40.9118 25.5 40.9118C32.2329 40.9118 33.0281 40.8893 35.6865 40.7811C38.1454 40.681 39.4792 40.3156 40.3683 40.0073C41.544 39.599 42.385 39.1151 43.2673 38.329C44.1038 37.6043 44.7477 36.7202 45.151 35.7463C45.4971 34.9542 45.9073 33.7659 46.0196 31.5752C46.141 29.2069 46.1663 28.4964 46.1663 22.5C46.1663 16.5036 46.141 15.7931 46.0196 13.4248C45.9073 11.2341 45.4971 10.0458 45.151 9.25367C44.6927 8.2063 44.1496 7.45701 43.2673 6.67096C42.4536 5.9259 41.4631 5.35248 40.3683 4.99271C39.4792 4.68442 38.1454 4.31896 35.6865 4.21892ZM22.2802 29.4233C24.0784 30.0902 26.0807 30.1802 27.945 29.6779C29.8094 29.1757 31.4203 28.1124 32.5024 26.6696C33.5846 25.2268 34.071 23.494 33.8784 21.7673C33.6859 20.0405 32.8265 18.4268 31.4469 17.2019C30.5674 16.4189 29.504 15.8193 28.3333 15.4463C27.1625 15.0734 25.9135 14.9364 24.6761 15.0451C23.4388 15.1538 22.2439 15.5056 21.1775 16.0751C20.111 16.6447 19.1996 17.4178 18.5088 18.3388C17.818 19.2598 17.365 20.3058 17.1824 21.4015C16.9998 22.4972 17.0922 23.6154 17.4529 24.6754C17.8136 25.7355 18.4336 26.7112 19.2683 27.5321C20.103 28.3531 21.1317 28.999 22.2802 29.4233ZM16.3379 14.3374C17.5411 13.2655 18.9695 12.4152 20.5415 11.8351C22.1136 11.255 23.7984 10.9564 25.5 10.9564C27.2016 10.9564 28.8865 11.255 30.4585 11.8351C32.0305 12.4152 33.4589 13.2655 34.6621 14.3374C35.8653 15.4093 36.8197 16.6819 37.4708 18.0824C38.122 19.483 38.4571 20.9841 38.4571 22.5C38.4571 24.0159 38.122 25.517 37.4708 26.9176C36.8197 28.3181 35.8653 29.5907 34.6621 30.6626C32.2322 32.8274 28.9365 34.0436 25.5 34.0436C22.0636 34.0436 18.7679 32.8274 16.3379 30.6626C13.908 28.4977 12.5429 25.5616 12.5429 22.5C12.5429 19.4384 13.908 16.5023 16.3379 14.3374ZM41.3308 12.6755C41.629 12.4249 41.8677 12.1236 42.0328 11.7894C42.1979 11.4551 42.286 11.0948 42.292 10.7297C42.298 10.3645 42.2217 10.002 42.0676 9.66366C41.9135 9.32528 41.6847 9.01788 41.3949 8.75967C41.1051 8.50146 40.76 8.29768 40.3802 8.16039C40.0004 8.02311 39.5935 7.95512 39.1837 7.96044C38.7739 7.96577 38.3694 8.0443 37.9942 8.19138C37.6191 8.33847 37.2808 8.55112 36.9996 8.81675C36.4526 9.33336 36.1531 10.0195 36.1647 10.7297C36.1764 11.4398 36.4982 12.1179 37.0618 12.6201C37.6255 13.1222 38.3866 13.4089 39.1837 13.4193C39.9808 13.4296 40.751 13.1628 41.3308 12.6755Z" fill="#6F6F6F"/>
</svg>
