<svg width="46" height="44" viewBox="0 0 46 44" fill="none" xmlns="http://www.w3.org/2000/svg">
<path fill-rule="evenodd" clip-rule="evenodd" d="M0.0833364 4.43949C0.0833364 3.50518 0.486765 2.60913 1.20487 1.94848C1.92298 1.28782 2.89695 0.916661 3.9125 0.916661H42.0833C42.5866 0.915905 43.0851 1.00648 43.5503 1.18321C44.0155 1.35993 44.4382 1.61933 44.7943 1.94656C45.1503 2.27378 45.4328 2.66241 45.6254 3.09018C45.818 3.51795 45.9169 3.97648 45.9167 4.43949V39.5567C45.9172 40.0198 45.8185 40.4784 45.6262 40.9064C45.4339 41.3344 45.1517 41.7233 44.7959 42.0508C44.44 42.3784 44.0175 42.6382 43.5524 42.8153C43.0873 42.9925 42.5888 43.0836 42.0854 43.0833H3.9125C3.40947 43.0833 2.91138 42.9921 2.44666 42.815C1.98195 42.6378 1.55973 42.3782 1.20414 42.0508C0.848538 41.7235 0.566527 41.3349 0.374216 40.9073C0.181905 40.4797 0.0830628 40.0214 0.0833364 39.5586V4.43949ZM18.225 16.9937H24.4313V19.861C25.3271 18.2127 27.6188 16.7292 31.0625 16.7292C37.6646 16.7292 39.2292 20.0124 39.2292 26.0365V37.1953H32.5479V27.4088C32.5479 23.978 31.6521 22.0422 29.3771 22.0422C26.2208 22.0422 24.9083 24.1294 24.9083 27.4088V37.1953H18.225V16.9937ZM6.76667 36.9327H13.45V16.7292H6.76667V36.9308V36.9327ZM14.4063 10.1397C14.4189 10.6661 14.317 11.1896 14.1068 11.6793C13.8965 12.1691 13.582 12.6153 13.1817 12.9917C12.7815 13.3681 12.3035 13.6672 11.776 13.8714C11.2484 14.0756 10.6818 14.1808 10.1094 14.1808C9.53701 14.1808 8.9704 14.0756 8.44281 13.8714C7.91522 13.6672 7.43727 13.3681 7.03702 12.9917C6.63677 12.6153 6.32228 12.1691 6.112 11.6793C5.90173 11.1896 5.7999 10.6661 5.8125 10.1397C5.83724 9.1063 6.30081 8.12293 7.10393 7.40014C7.90706 6.67736 8.98589 6.27263 10.1094 6.27263C11.2329 6.27263 12.3117 6.67736 13.1148 7.40014C13.918 8.12293 14.3815 9.1063 14.4063 10.1397Z" fill="#6F6F6F"/>
</svg>
