<svg width="44" height="41" viewBox="0 0 44 41" fill="none" xmlns="http://www.w3.org/2000/svg">
<path d="M41.4062 0.578125H2.59375C1.66035 0.578125 0.90625 1.29033 0.90625 2.17188V38.8281C0.90625 39.7097 1.66035 40.4219 2.59375 40.4219H41.4062C42.3396 40.4219 43.0938 39.7097 43.0938 38.8281V2.17188C43.0938 1.29033 42.3396 0.578125 41.4062 0.578125ZM33.3537 15.0065C33.3695 15.2406 33.3695 15.4847 33.3695 15.7237C33.3695 23.0351 27.4738 31.457 16.7002 31.457C13.3779 31.457 10.2982 30.5456 7.70371 28.9768C8.17832 29.0266 8.63184 29.0465 9.11699 29.0465C11.8592 29.0465 14.3799 28.1699 16.3891 26.6857C13.8156 26.6359 11.6535 25.0422 10.9152 22.8508C11.817 22.9753 12.6291 22.9753 13.5572 22.7512C12.2322 22.4969 11.0411 21.8172 10.1865 20.8276C9.33192 19.838 8.86643 18.5995 8.86914 17.3225V17.2527C9.64434 17.6661 10.5566 17.9201 11.5111 17.955C10.7087 17.4499 10.0507 16.7657 9.59535 15.9629C9.14001 15.1602 8.90143 14.2637 8.90078 13.353C8.90078 12.3221 9.18555 11.3808 9.69707 10.564C11.1678 12.2739 13.0031 13.6725 15.0837 14.6687C17.1643 15.6649 19.4435 16.2365 21.7732 16.3463C20.9453 12.586 23.9195 9.54297 27.4949 9.54297C29.1824 9.54297 30.7012 10.2104 31.7717 11.2861C33.0953 11.0521 34.3609 10.5839 35.4895 9.95635C35.0518 11.2363 34.1342 12.3171 32.916 12.9994C34.0973 12.8799 35.2363 12.5711 36.291 12.1378C35.4947 13.2435 34.498 14.2246 33.3537 15.0065Z" fill="#6F6F6F"/>
</svg>
