<svg width="104" height="104" viewBox="0 0 104 104" fill="none" xmlns="http://www.w3.org/2000/svg">
<path d="M52.0003 91C75.9327 91 95.3336 71.599 95.3336 47.6666C95.3336 23.7343 75.9327 4.33331 52.0003 4.33331C28.068 4.33331 8.66699 23.7343 8.66699 47.6666C8.66699 71.599 28.068 91 52.0003 91Z" fill="#FFF59D"/>
<path d="M80.1667 47.6667C80.1667 30.9833 65.8667 17.7667 48.75 19.7167C35.75 21.2333 25.35 31.6333 24.05 44.6333C22.9667 54.6 27.0833 63.4833 34.0167 69.1166C37.05 71.7166 39 75.4 39 79.5167V80.1666H65V79.95C65 76.05 66.7333 72.15 69.7667 69.55C76.05 64.35 80.1667 56.55 80.1667 47.6667Z" fill="#FBC02D"/>
<path d="M66.2998 43.7667L59.7998 39.4333C59.1498 39 58.0665 39 57.4165 39.4333L51.9998 42.9L46.7998 39.4333C46.1498 39 45.0665 39 44.4165 39.4333L37.9165 43.7667C37.4831 44.2 37.0498 44.6333 37.0498 45.2833C37.0498 45.9333 37.0498 46.5833 37.4831 47.0167L45.7165 57.2V80.1667H50.0498V56.3333C50.0498 55.9 49.8331 55.4667 49.6165 55.0333L42.4665 46.15L45.7165 43.9833L50.9165 47.45C51.5665 47.8833 52.6498 47.8833 53.2998 47.45L58.4998 43.9833L61.7498 46.15L54.5998 55.0333C54.3831 55.4667 54.1665 55.9 54.1665 56.3333V80.1667H58.4998V57.2L66.7331 47.0167C67.1665 46.5833 67.3831 45.9333 67.1665 45.2833C66.9498 44.6333 66.7331 43.9833 66.2998 43.7667Z" fill="#FFF59D"/>
<path d="M52 101.833C55.5899 101.833 58.5 98.9232 58.5 95.3333C58.5 91.7435 55.5899 88.8333 52 88.8333C48.4101 88.8333 45.5 91.7435 45.5 95.3333C45.5 98.9232 48.4101 101.833 52 101.833Z" fill="#5C6BC0"/>
<path d="M56.3333 97.5H47.6667C42.9 97.5 39 93.6 39 88.8333V78H65V88.8333C65 93.6 61.1 97.5 56.3333 97.5Z" fill="#9FA8DA"/>
<path d="M65 88.8334L39.8667 92.3C40.5167 93.8167 41.8167 95.3334 43.3333 96.2L63.7 93.3834C64.5667 92.0834 65 90.5667 65 88.8334ZM39 83.85V88.1834L65 84.5V80.1667L39 83.85Z" fill="#5C6BC0"/>
</svg>
