<svg width="66" height="70" viewBox="0 0 66 70" fill="none" xmlns="http://www.w3.org/2000/svg">
<path d="M33 0C35.912 0 38.733 0.413 41.4175 1.1865L34.508 8.624C33.9838 9.19076 33.5215 9.82018 33.13 10.5H33C28.5005 10.5 24.102 11.9369 20.3608 14.629C16.6196 17.3211 13.7036 21.1475 11.9817 25.6243C10.2598 30.101 9.80932 35.0272 10.6871 39.7797C11.5649 44.5322 13.7317 48.8977 16.9133 52.3241C20.095 55.7505 24.1486 58.0839 28.5617 59.0292C32.9748 59.9746 37.549 59.4894 41.7061 57.6351C45.8631 55.7807 49.4161 52.6405 51.9159 48.6115C54.4157 44.5825 55.75 39.8456 55.75 35V34.86C56.374 34.44 56.959 33.9465 57.4888 33.3725L64.3982 25.935C65.1165 28.826 65.5 31.864 65.5 35C65.5 54.3305 50.9497 70 33 70C15.0503 70 0.5 54.3305 0.5 35C0.5 15.6695 15.0503 0 33 0ZM31.6545 17.5595C31.6545 20.538 31.518 23.5585 31.6675 26.5335L29.9125 28.4235C29.3088 29.0736 28.8299 29.8455 28.5032 30.6949C28.1765 31.5444 28.0083 32.4548 28.0083 33.3742C28.0083 34.2937 28.1765 35.2041 28.5032 36.0536C28.8299 36.903 29.3088 37.6749 29.9125 38.325C30.5162 38.9751 31.2329 39.4909 32.0217 39.8427C32.8105 40.1946 33.6559 40.3757 34.5096 40.3757C35.3634 40.3757 36.2088 40.1946 36.9976 39.8427C37.7863 39.4909 38.503 38.9751 39.1068 38.325L40.8617 36.435C43.6242 36.596 46.4258 36.449 49.1947 36.449C48.938 39.7752 47.8034 42.9529 45.9247 45.6075C44.046 48.262 41.5016 50.2826 38.5915 51.431C35.6815 52.5793 32.5272 52.8075 29.5007 52.0886C26.4741 51.3698 23.7016 49.7338 21.5101 47.3737C19.3186 45.0136 17.7995 42.0279 17.132 38.7685C16.4645 35.5092 16.6764 32.1123 17.7427 28.9784C18.809 25.8445 20.6853 23.1043 23.1502 21.0811C25.6151 19.0579 28.5659 17.836 31.6545 17.5595ZM54.138 0.4445C54.7312 0.709377 55.2383 1.15758 55.5952 1.73253C55.952 2.30749 56.1428 2.98342 56.1432 3.675V10.08H62.0875C62.7302 10.0801 63.3584 10.2855 63.8927 10.6701C64.4271 11.0547 64.8435 11.6013 65.0895 12.2407C65.3354 12.8802 65.3997 13.5838 65.2744 14.2626C65.1491 14.9414 64.8396 15.565 64.3853 16.0545L52.89 28.42C52.2807 29.0764 51.4541 29.4453 50.5923 29.4455H42.75L36.8057 35.847C36.1959 36.5033 35.369 36.8718 34.5069 36.8715C33.6447 36.8711 32.818 36.502 32.2086 35.8452C31.5992 35.1885 31.257 34.298 31.2573 33.3695C31.2576 32.4411 31.6004 31.5508 32.2103 30.8945L38.1545 24.5V16.051C38.1542 15.5908 38.2381 15.1351 38.4015 14.7099C38.5649 14.2847 38.8046 13.8983 39.1068 13.573L50.5955 1.2005C51.05 0.710735 51.6292 0.377154 52.2598 0.24196C52.8903 0.106765 53.544 0.176033 54.138 0.441V0.4445Z" fill="#092648"/>
</svg>
