<svg width="4737" height="2791" viewBox="0 0 4737 2791" fill="none" xmlns="http://www.w3.org/2000/svg">
<mask id="mask0_1_1026" style="mask-type:alpha" maskUnits="userSpaceOnUse" x="0" y="2631" width="4737" height="160">
<path d="M0 2631.01H4736.71V2790.99H0V2631.01Z" fill="white"/>
</mask>
<g mask="url(#mask0_1_1026)">
<path d="M4735.83 3197.09L4427.26 2755.36C4379.73 2687.3 4230.94 2632.18 4094.9 2632.18H641.41C505.376 2632.18 356.583 2687.3 309.053 2755.36L0.484375 3197.09H4735.83Z" fill="#192C37"/>
</g>
<path d="M4088.06 0H648.253C512.214 0 401.926 110.246 401.926 246.358V2350.99C401.926 2487.04 512.214 2597.35 648.253 2597.35H4088.06C4224.09 2597.35 4334.39 2487.04 4334.39 2350.99V246.358C4334.39 110.246 4224.09 0 4088.06 0Z" fill="#192C37"/>
<path d="M461.179 2408.64V304.012C461.179 167.957 571.466 57.6487 707.563 57.6487H4147.37C4198.29 57.6487 4245.59 73.1154 4284.96 99.6692C4240.01 39.4896 4168.87 0 4088.06 0H648.253C512.214 0 401.926 110.246 401.926 246.358V2350.99C401.926 2436.12 445.087 2511.13 510.719 2555.39C480.031 2514.29 461.179 2463.88 461.179 2408.64Z" fill="#0E191F"/>
<path d="M4170.99 2350.36H565.264V289.639H4170.99V2350.36Z" fill="#5CC9D9"/>
<path d="M877.739 1887.36C1338.72 1697.33 1821.08 1565.52 2310.74 1473.44C2911.84 1360.38 3522.02 1325.66 4132.09 1338.59V323.036H604.171V2002.77C697.736 1961.16 790.552 1923.28 877.739 1887.36Z" fill="#4CA5B3"/>
<path d="M1816.43 2598.84C1816.43 2629.88 1778.72 2655.06 1732.23 2655.06H1110.04C1063.54 2655.06 1025.84 2629.88 1025.84 2598.84C1025.84 2567.8 1063.54 2542.63 1110.04 2542.63H1732.23C1778.72 2542.63 1816.43 2567.8 1816.43 2598.84Z" fill="#0E191F"/>
<path d="M3710.41 2598.84C3710.41 2629.88 3672.77 2655.06 3626.22 2655.06H3004.03C2957.53 2655.06 2919.83 2629.88 2919.83 2598.84C2919.83 2567.8 2957.53 2542.63 3004.03 2542.63H3626.22C3672.77 2542.63 3710.41 2567.8 3710.41 2598.84Z" fill="#0E191F"/>
<mask id="mask1_1_1026" style="mask-type:alpha" maskUnits="userSpaceOnUse" x="487" y="2749" width="195" height="42">
<path d="M487.936 2749.66H681.244V2790.99H487.936V2749.66Z" fill="white"/>
</mask>
<g mask="url(#mask1_1_1026)">
<path d="M646.759 2808.59H521.582C503.251 2808.59 488.306 2800.83 488.306 2791.34V2767.38C488.306 2757.84 503.251 2750.13 521.582 2750.13H646.759C665.204 2750.13 680.093 2757.84 680.093 2767.38V2791.34C680.093 2800.83 665.204 2808.59 646.759 2808.59Z" fill="#172832"/>
</g>
<mask id="mask2_1_1026" style="mask-type:alpha" maskUnits="userSpaceOnUse" x="786" y="2749" width="194" height="42">
<path d="M786.563 2749.66H979.871V2790.99H786.563V2749.66Z" fill="white"/>
</mask>
<g mask="url(#mask2_1_1026)">
<path d="M945.782 2808.59H820.611C802.218 2808.59 787.277 2800.83 787.277 2791.34V2767.38C787.277 2757.84 802.218 2750.13 820.611 2750.13H945.782C964.233 2750.13 979.116 2757.84 979.116 2767.38V2791.34C979.116 2800.83 964.233 2808.59 945.782 2808.59Z" fill="#172832"/>
</g>
<mask id="mask3_1_1026" style="mask-type:alpha" maskUnits="userSpaceOnUse" x="1085" y="2749" width="194" height="42">
<path d="M1085.19 2749.66H1278.5V2790.99H1085.19V2749.66Z" fill="white"/>
</mask>
<g mask="url(#mask3_1_1026)">
<path d="M1244.75 2808.59H1119.63C1101.25 2808.59 1086.3 2800.83 1086.3 2791.34V2767.38C1086.3 2757.84 1101.25 2750.13 1119.63 2750.13H1244.75C1263.2 2750.13 1278.14 2757.84 1278.14 2767.38V2791.34C1278.14 2800.83 1263.2 2808.59 1244.75 2808.59Z" fill="#172832"/>
</g>
<mask id="mask4_1_1026" style="mask-type:alpha" maskUnits="userSpaceOnUse" x="1385" y="2749" width="193" height="42">
<path d="M1385.15 2749.66H1577.13V2790.99H1385.15V2749.66Z" fill="white"/>
</mask>
<g mask="url(#mask4_1_1026)">
<path d="M1543.78 2808.59H1418.66C1400.21 2808.59 1385.27 2800.83 1385.27 2791.34V2767.38C1385.27 2757.84 1400.21 2750.13 1418.66 2750.13H1543.78C1562.23 2750.13 1577.11 2757.84 1577.11 2767.38V2791.34C1577.11 2800.83 1562.23 2808.59 1543.78 2808.59Z" fill="#172832"/>
</g>
<mask id="mask5_1_1026" style="mask-type:alpha" maskUnits="userSpaceOnUse" x="1683" y="2749" width="195" height="42">
<path d="M1683.78 2749.66H1877.09V2790.99H1683.78V2749.66Z" fill="white"/>
</mask>
<g mask="url(#mask5_1_1026)">
<path d="M1842.8 2808.59H1717.63C1699.24 2808.59 1684.3 2800.83 1684.3 2791.34V2767.38C1684.3 2757.84 1699.24 2750.13 1717.63 2750.13H1842.8C1861.2 2750.13 1876.14 2757.84 1876.14 2767.38V2791.34C1876.14 2800.83 1861.2 2808.59 1842.8 2808.59Z" fill="#172832"/>
</g>
<mask id="mask6_1_1026" style="mask-type:alpha" maskUnits="userSpaceOnUse" x="1982" y="2749" width="194" height="42">
<path d="M1982.41 2749.66H2175.71V2790.99H1982.41V2749.66Z" fill="white"/>
</mask>
<g mask="url(#mask6_1_1026)">
<path d="M2141.83 2808.59H2016.66C1998.21 2808.59 1983.32 2800.83 1983.32 2791.34V2767.38C1983.32 2757.84 1998.21 2750.13 2016.66 2750.13H2141.83C2160.22 2750.13 2175.17 2757.84 2175.17 2767.38V2791.34C2175.17 2800.83 2160.22 2808.59 2141.83 2808.59Z" fill="#172832"/>
</g>
<mask id="mask7_1_1026" style="mask-type:alpha" maskUnits="userSpaceOnUse" x="2281" y="2749" width="194" height="42">
<path d="M2281.03 2749.66H2474.34V2790.99H2281.03V2749.66Z" fill="white"/>
</mask>
<g mask="url(#mask7_1_1026)">
<path d="M2440.8 2808.59H2315.63C2297.23 2808.59 2282.35 2800.83 2282.35 2791.34V2767.38C2282.35 2757.84 2297.23 2750.13 2315.63 2750.13H2440.8C2459.19 2750.13 2474.13 2757.84 2474.13 2767.38V2791.34C2474.13 2800.83 2459.19 2808.59 2440.8 2808.59Z" fill="#172832"/>
</g>
<mask id="mask8_1_1026" style="mask-type:alpha" maskUnits="userSpaceOnUse" x="2580" y="2749" width="195" height="42">
<path d="M2580.99 2749.66H2774.3V2790.99H2580.99V2749.66Z" fill="white"/>
</mask>
<g mask="url(#mask8_1_1026)">
<path d="M2739.83 2808.59H2614.66C2596.26 2808.59 2581.32 2800.83 2581.32 2791.34V2767.38C2581.32 2757.84 2596.26 2750.13 2614.66 2750.13H2739.83C2758.22 2750.13 2773.16 2757.84 2773.16 2767.38V2791.34C2773.16 2800.83 2758.22 2808.59 2739.83 2808.59Z" fill="#172832"/>
</g>
<mask id="mask9_1_1026" style="mask-type:alpha" maskUnits="userSpaceOnUse" x="2879" y="2749" width="194" height="42">
<path d="M2879.62 2749.66H3072.93V2790.99H2879.62V2749.66Z" fill="white"/>
</mask>
<g mask="url(#mask9_1_1026)">
<path d="M3038.8 2808.59H2913.68C2895.29 2808.59 2880.34 2800.83 2880.34 2791.34V2767.38C2880.34 2757.84 2895.29 2750.13 2913.68 2750.13H3038.8C3057.24 2750.13 3072.13 2757.84 3072.13 2767.38V2791.34C3072.13 2800.83 3057.24 2808.59 3038.8 2808.59Z" fill="#172832"/>
</g>
<mask id="mask10_1_1026" style="mask-type:alpha" maskUnits="userSpaceOnUse" x="3178" y="2749" width="194" height="42">
<path d="M3178.25 2749.66H3371.56V2790.99H3178.25V2749.66Z" fill="white"/>
</mask>
<g mask="url(#mask10_1_1026)">
<path d="M3337.82 2808.59H3212.71C3194.31 2808.59 3179.32 2800.83 3179.32 2791.34V2767.38C3179.32 2757.84 3194.31 2750.13 3212.71 2750.13H3337.82C3356.27 2750.13 3371.15 2757.84 3371.15 2767.38V2791.34C3371.15 2800.83 3356.27 2808.59 3337.82 2808.59Z" fill="#172832"/>
</g>
<mask id="mask11_1_1026" style="mask-type:alpha" maskUnits="userSpaceOnUse" x="3478" y="2749" width="193" height="42">
<path d="M3478.21 2749.66H3670.18V2790.99H3478.21V2749.66Z" fill="white"/>
</mask>
<g mask="url(#mask11_1_1026)">
<path d="M3636.79 2808.59H3511.73C3493.28 2808.59 3478.34 2800.83 3478.34 2791.34V2767.38C3478.34 2757.84 3493.28 2750.13 3511.73 2750.13H3636.79C3655.24 2750.13 3670.18 2757.84 3670.18 2767.38V2791.34C3670.18 2800.83 3655.24 2808.59 3636.79 2808.59Z" fill="#172832"/>
</g>
<mask id="mask12_1_1026" style="mask-type:alpha" maskUnits="userSpaceOnUse" x="3776" y="2749" width="195" height="42">
<path d="M3776.84 2749.66H3970.14V2790.99H3776.84V2749.66Z" fill="white"/>
</mask>
<g mask="url(#mask12_1_1026)">
<path d="M3935.82 2808.59H3810.7C3792.31 2808.59 3777.37 2800.83 3777.37 2791.34V2767.38C3777.37 2757.84 3792.31 2750.13 3810.7 2750.13H3935.82C3954.27 2750.13 3969.21 2757.84 3969.21 2767.38V2791.34C3969.21 2800.83 3954.27 2808.59 3935.82 2808.59Z" fill="#172832"/>
</g>
<mask id="mask13_1_1026" style="mask-type:alpha" maskUnits="userSpaceOnUse" x="4075" y="2749" width="194" height="42">
<path d="M4075.46 2749.66H4268.77V2790.99H4075.46V2749.66Z" fill="white"/>
</mask>
<g mask="url(#mask13_1_1026)">
<path d="M4234.84 2808.59H4109.73C4091.28 2808.59 4076.4 2800.83 4076.4 2791.34V2767.38C4076.4 2757.84 4091.28 2750.13 4109.73 2750.13H4234.84C4253.24 2750.13 4268.18 2757.84 4268.18 2767.38V2791.34C4268.18 2800.83 4253.24 2808.59 4234.84 2808.59Z" fill="#172832"/>
</g>
<path d="M2427.47 173.701C2427.47 206.41 2400.91 232.964 2368.16 232.964C2335.4 232.964 2308.85 206.41 2308.85 173.701C2308.85 140.882 2335.4 114.329 2368.16 114.329C2400.91 114.329 2427.47 140.882 2427.47 173.701Z" fill="#D3D2D2"/>
<path d="M2399.19 173.701C2399.19 190.834 2385.28 204.687 2368.16 204.687C2351.03 204.687 2337.12 190.834 2337.12 173.701C2337.12 156.516 2351.03 142.606 2368.16 142.606C2385.28 142.606 2399.19 156.516 2399.19 173.701Z" fill="#BDBCBC"/>
<mask id="mask14_1_1026" style="mask-type:alpha" maskUnits="userSpaceOnUse" x="477" y="2738" width="194" height="53">
<path d="M477.271 2739H670.578V2790.99H477.271V2739Z" fill="white"/>
</mask>
<g mask="url(#mask14_1_1026)">
<path d="M670.032 2781.23C670.032 2790.71 655.091 2798.53 636.64 2798.53H511.526C493.133 2798.53 478.192 2790.71 478.192 2781.23V2757.31C478.192 2747.77 493.133 2740.01 511.526 2740.01H636.64C655.091 2740.01 670.032 2747.77 670.032 2757.31V2781.23Z" fill="#2A4C5F"/>
</g>
<mask id="mask15_1_1026" style="mask-type:alpha" maskUnits="userSpaceOnUse" x="775" y="2738" width="195" height="53">
<path d="M775.898 2739H969.206V2790.99H775.898V2739Z" fill="white"/>
</mask>
<g mask="url(#mask15_1_1026)">
<path d="M969.003 2781.23C969.003 2790.71 954.119 2798.53 935.669 2798.53H810.55C792.161 2798.53 777.221 2790.71 777.221 2781.23V2757.31C777.221 2747.77 792.161 2740.01 810.55 2740.01H935.669C954.119 2740.01 969.003 2747.77 969.003 2757.31V2781.23Z" fill="#2A4C5F"/>
</g>
<mask id="mask16_1_1026" style="mask-type:alpha" maskUnits="userSpaceOnUse" x="1075" y="2738" width="195" height="53">
<path d="M1075.86 2739H1269.17V2790.99H1075.86V2739Z" fill="white"/>
</mask>
<g mask="url(#mask16_1_1026)">
<path d="M1268.03 2781.23C1268.03 2790.71 1253.09 2798.53 1234.7 2798.53H1109.58C1091.19 2798.53 1076.19 2790.71 1076.19 2781.23V2757.31C1076.19 2747.77 1091.19 2740.01 1109.58 2740.01H1234.7C1253.09 2740.01 1268.03 2747.77 1268.03 2757.31V2781.23Z" fill="#2A4C5F"/>
</g>
<mask id="mask17_1_1026" style="mask-type:alpha" maskUnits="userSpaceOnUse" x="1374" y="2738" width="194" height="53">
<path d="M1374.49 2739H1567.79V2790.99H1374.49V2739Z" fill="white"/>
</mask>
<g mask="url(#mask17_1_1026)">
<path d="M1567.05 2781.23C1567.05 2790.71 1552.11 2798.53 1533.72 2798.53H1408.55C1390.16 2798.53 1375.22 2790.71 1375.22 2781.23V2757.31C1375.22 2747.77 1390.16 2740.01 1408.55 2740.01H1533.72C1552.11 2740.01 1567.05 2747.77 1567.05 2757.31V2781.23Z" fill="#2A4C5F"/>
</g>
<mask id="mask18_1_1026" style="mask-type:alpha" maskUnits="userSpaceOnUse" x="1673" y="2738" width="194" height="53">
<path d="M1673.11 2739H1866.42V2790.99H1673.11V2739Z" fill="white"/>
</mask>
<g mask="url(#mask18_1_1026)">
<path d="M1866.08 2781.23C1866.08 2790.71 1851.14 2798.53 1832.69 2798.53H1707.51C1689.13 2798.53 1674.24 2790.71 1674.24 2781.23V2757.31C1674.24 2747.77 1689.13 2740.01 1707.51 2740.01H1832.69C1851.14 2740.01 1866.08 2747.77 1866.08 2757.31V2781.23Z" fill="#2A4C5F"/>
</g>
<mask id="mask19_1_1026" style="mask-type:alpha" maskUnits="userSpaceOnUse" x="1973" y="2738" width="193" height="53">
<path d="M1973.07 2739H2165.05V2790.99H1973.07V2739Z" fill="white"/>
</mask>
<g mask="url(#mask19_1_1026)">
<path d="M2165.05 2781.23C2165.05 2790.71 2150.17 2798.53 2131.71 2798.53H2006.54C1988.15 2798.53 1973.21 2790.71 1973.21 2781.23V2757.31C1973.21 2747.77 1988.15 2740.01 2006.54 2740.01H2131.71C2150.17 2740.01 2165.05 2747.77 2165.05 2757.31V2781.23Z" fill="#2A4C5F"/>
</g>
<mask id="mask20_1_1026" style="mask-type:alpha" maskUnits="userSpaceOnUse" x="2271" y="2738" width="195" height="53">
<path d="M2271.7 2739H2465.01V2790.99H2271.7V2739Z" fill="white"/>
</mask>
<g mask="url(#mask20_1_1026)">
<path d="M2464.08 2781.23C2464.08 2790.71 2449.14 2798.53 2430.74 2798.53H2305.57C2287.18 2798.53 2272.24 2790.71 2272.24 2781.23V2757.31C2272.24 2747.77 2287.18 2740.01 2305.57 2740.01H2430.74C2449.14 2740.01 2464.08 2747.77 2464.08 2757.31V2781.23Z" fill="#2A4C5F"/>
</g>
<mask id="mask21_1_1026" style="mask-type:alpha" maskUnits="userSpaceOnUse" x="2570" y="2738" width="194" height="53">
<path d="M2570.33 2739H2763.64V2790.99H2570.33V2739Z" fill="white"/>
</mask>
<g mask="url(#mask21_1_1026)">
<path d="M2763.05 2781.23C2763.05 2790.71 2748.16 2798.53 2729.77 2798.53H2604.59C2586.21 2798.53 2571.2 2790.71 2571.2 2781.23V2757.31C2571.2 2747.77 2586.21 2740.01 2604.59 2740.01H2729.77C2748.16 2740.01 2763.05 2747.77 2763.05 2757.31V2781.23Z" fill="#2A4C5F"/>
</g>
<mask id="mask22_1_1026" style="mask-type:alpha" maskUnits="userSpaceOnUse" x="2868" y="2738" width="195" height="53">
<path d="M2868.96 2739H3062.26V2790.99H2868.96V2739Z" fill="white"/>
</mask>
<g mask="url(#mask22_1_1026)">
<path d="M3062.07 2781.23C3062.07 2790.71 3047.13 2798.53 3028.74 2798.53H2903.62C2885.17 2798.53 2870.23 2790.71 2870.23 2781.23V2757.31C2870.23 2747.77 2885.17 2740.01 2903.62 2740.01H3028.74C3047.13 2740.01 3062.07 2747.77 3062.07 2757.31V2781.23Z" fill="#2A4C5F"/>
</g>
<mask id="mask23_1_1026" style="mask-type:alpha" maskUnits="userSpaceOnUse" x="3168" y="2738" width="195" height="53">
<path d="M3168.92 2739H3362.22V2790.99H3168.92V2739Z" fill="white"/>
</mask>
<g mask="url(#mask23_1_1026)">
<path d="M3361.1 2781.23C3361.1 2790.71 3346.16 2798.53 3327.71 2798.53H3202.59C3184.2 2798.53 3169.26 2790.71 3169.26 2781.23V2757.31C3169.26 2747.77 3184.2 2740.01 3202.59 2740.01H3327.71C3346.16 2740.01 3361.1 2747.77 3361.1 2757.31V2781.23Z" fill="#2A4C5F"/>
</g>
<mask id="mask24_1_1026" style="mask-type:alpha" maskUnits="userSpaceOnUse" x="3467" y="2738" width="194" height="53">
<path d="M3467.54 2739H3660.85V2790.99H3467.54V2739Z" fill="white"/>
</mask>
<g mask="url(#mask24_1_1026)">
<path d="M3660.07 2781.23C3660.07 2790.71 3645.12 2798.53 3626.79 2798.53H3501.62C3483.17 2798.53 3468.28 2790.71 3468.28 2781.23V2757.31C3468.28 2747.77 3483.17 2740.01 3501.62 2740.01H3626.79C3645.12 2740.01 3660.07 2747.77 3660.07 2757.31V2781.23Z" fill="#2A4C5F"/>
</g>
<mask id="mask25_1_1026" style="mask-type:alpha" maskUnits="userSpaceOnUse" x="3766" y="2738" width="194" height="53">
<path d="M3766.17 2739H3959.48V2790.99H3766.17V2739Z" fill="white"/>
</mask>
<g mask="url(#mask25_1_1026)">
<path d="M3959.09 2781.23C3959.09 2790.71 3944.15 2798.53 3925.76 2798.53H3800.65C3782.19 2798.53 3767.25 2790.71 3767.25 2781.23V2757.31C3767.25 2747.77 3782.19 2740.01 3800.65 2740.01H3925.76C3944.15 2740.01 3959.09 2747.77 3959.09 2757.31V2781.23Z" fill="#2A4C5F"/>
</g>
<mask id="mask26_1_1026" style="mask-type:alpha" maskUnits="userSpaceOnUse" x="4066" y="2738" width="194" height="53">
<path d="M4066.13 2739H4259.44V2790.99H4066.13V2739Z" fill="white"/>
</mask>
<g mask="url(#mask26_1_1026)">
<path d="M4258.12 2781.23C4258.12 2790.71 4243.18 2798.53 4224.73 2798.53H4099.61C4081.17 2798.53 4066.28 2790.71 4066.28 2781.23V2757.31C4066.28 2747.77 4081.17 2740.01 4099.61 2740.01H4224.73C4243.18 2740.01 4258.12 2747.77 4258.12 2757.31V2781.23Z" fill="#2A4C5F"/>
</g>
<mask id="mask27_1_1026" style="mask-type:alpha" maskUnits="userSpaceOnUse" x="565" y="268" width="3613" height="2090">
<path d="M565.952 268.032H4177.17V2357H565.952V268.032Z" fill="white"/>
</mask>
<g mask="url(#mask27_1_1026)">
<path d="M565.957 268.032H4177.17V2357H565.957V268.032Z" fill="white"/>
</g>
<path d="M1837.18 684.7V858.052C1837.18 877.05 1842.13 891.564 1852.03 901.588C1861.93 911.618 1875.85 916.628 1893.78 916.628C1911.95 916.628 1925.99 911.618 1935.9 901.588C1945.8 891.564 1950.75 877.05 1950.75 858.052V684.7H2007.32V857.657C2007.32 881.461 2002.17 901.588 1991.87 918.044C1981.58 934.501 1967.8 946.874 1950.54 955.165C1933.29 963.455 1914.1 967.6 1892.96 967.6C1872.09 967.6 1853.16 963.455 1836.18 955.165C1819.19 946.874 1805.75 934.501 1795.85 918.044C1785.96 901.588 1781.02 881.461 1781.02 857.657V684.7H1837.18Z" fill="#153866"/>
<path d="M2184.68 739.276C2211.16 739.276 2232.56 747.64 2248.88 764.356C2265.19 781.078 2273.35 804.424 2273.35 834.389V964.788H2217.17V842.013C2217.17 824.348 2212.76 810.767 2203.92 801.268C2195.1 791.769 2183.07 787.02 2167.82 787.02C2152.31 787.02 2140.07 791.769 2131.1 801.268C2122.14 810.767 2117.66 824.348 2117.66 842.013V964.788H2061.48V742.484H2117.66V770.168C2125.15 760.544 2134.71 752.993 2146.35 747.504C2157.98 742.021 2170.76 739.276 2184.68 739.276Z" fill="#153866"/>
<path d="M2312.28 852.845C2312.28 830.379 2316.75 810.45 2325.71 793.061C2334.67 775.663 2346.9 762.284 2362.42 752.921C2377.94 743.563 2395.19 738.881 2414.18 738.881C2428.64 738.881 2442.41 742.026 2455.51 748.317C2468.62 754.598 2479.05 762.956 2486.82 773.397V667.849H2543.79V964.789H2486.82V931.876C2479.86 942.849 2470.09 951.681 2457.53 958.373C2444.96 965.049 2430.38 968.392 2413.78 968.392C2395.06 968.392 2377.94 963.581 2362.42 953.957C2346.9 944.323 2334.67 930.746 2325.71 913.233C2316.75 895.709 2312.28 875.582 2312.28 852.845ZM2487.21 853.637C2487.21 840.003 2484.53 828.301 2479.19 818.537C2473.84 808.778 2466.62 801.284 2457.53 796.061C2448.43 790.843 2438.67 788.229 2428.24 788.229C2417.79 788.229 2408.16 790.77 2399.33 795.853C2390.51 800.935 2383.36 808.361 2377.87 818.121C2372.38 827.885 2369.64 839.461 2369.64 852.845C2369.64 866.218 2372.38 877.92 2377.87 887.945C2383.36 897.975 2390.58 905.666 2399.54 911.025C2408.5 916.373 2418.07 919.045 2428.24 919.045C2438.67 919.045 2448.43 916.441 2457.53 911.233C2466.62 906.015 2473.84 898.521 2479.19 888.757C2484.53 878.998 2487.21 867.291 2487.21 853.637Z" fill="#153866"/>
<path d="M2805.42 848.825C2805.42 856.855 2804.89 864.073 2803.82 870.489H2641.3C2642.63 886.544 2648.24 899.12 2658.15 908.213C2668.05 917.31 2680.22 921.857 2694.67 921.857C2715.54 921.857 2730.38 912.894 2739.2 894.964H2799.8C2793.38 916.368 2781.08 933.954 2762.89 947.728C2744.69 961.508 2722.35 968.392 2695.87 968.392C2674.47 968.392 2655.27 963.653 2638.28 954.165C2621.29 944.666 2608.05 931.225 2598.55 913.837C2589.06 896.454 2584.33 876.384 2584.33 853.637C2584.33 830.64 2589 810.45 2598.37 793.061C2607.72 775.662 2620.83 762.284 2637.67 752.921C2654.53 743.563 2673.93 738.881 2695.87 738.881C2717.01 738.881 2735.93 743.432 2752.64 752.525C2769.35 761.623 2782.33 774.532 2791.57 791.249C2800.8 807.971 2805.42 827.161 2805.42 848.825ZM2747.22 832.764C2746.96 818.324 2741.74 806.757 2731.58 798.061C2721.41 789.369 2708.98 785.021 2694.27 785.021C2680.35 785.021 2668.65 789.239 2659.15 797.665C2649.65 806.096 2643.83 817.798 2641.69 832.764H2747.22Z" fill="#153866"/>
<path d="M2902.51 777.001C2909.73 765.226 2919.16 755.998 2930.8 749.317C2942.44 742.625 2955.75 739.276 2970.73 739.276V798.269H2955.88C2938.23 798.269 2924.92 802.414 2915.95 810.704C2906.99 818.995 2902.51 833.441 2902.51 854.032V964.788H2846.33V742.484H2902.51V777.001Z" fill="#153866"/>
<path d="M1336.02 1125.4V1405.48H1279.84V1223.32L1204.81 1405.48H1162.27L1086.84 1223.32V1405.48H1030.66V1125.4H1094.47L1183.54 1333.66L1272.63 1125.4H1336.02Z" fill="#153866"/>
<path d="M1376.95 1293.54C1376.95 1271.08 1381.43 1251.15 1390.39 1233.76C1399.35 1216.36 1411.52 1202.98 1426.9 1193.62C1442.29 1184.26 1459.47 1179.58 1478.46 1179.58C1495.05 1179.58 1509.57 1182.93 1522 1189.62C1534.44 1196.3 1544.4 1204.72 1551.89 1214.88V1183.18H1608.46V1405.48H1551.89V1372.99C1544.67 1383.42 1534.7 1392.04 1522 1398.86C1509.29 1405.68 1494.65 1409.09 1478.06 1409.09C1459.34 1409.09 1442.29 1404.28 1426.9 1394.65C1411.52 1385.02 1399.35 1371.44 1390.39 1353.93C1381.43 1336.4 1376.95 1316.28 1376.95 1293.54ZM1551.89 1294.33C1551.89 1280.7 1549.21 1269 1543.87 1259.23C1538.52 1249.47 1531.3 1241.98 1522.2 1236.76C1513.11 1231.54 1503.34 1228.92 1492.92 1228.92C1482.47 1228.92 1472.84 1231.47 1464 1236.55C1455.18 1241.63 1448.03 1249.06 1442.55 1258.82C1437.06 1268.58 1434.32 1280.16 1434.32 1293.54C1434.32 1306.91 1437.06 1318.62 1442.55 1328.64C1448.03 1338.67 1455.26 1346.36 1464.21 1351.72C1473.18 1357.07 1482.75 1359.74 1492.92 1359.74C1503.34 1359.74 1513.11 1357.14 1522.2 1351.93C1531.3 1346.71 1538.52 1339.22 1543.87 1329.45C1549.21 1319.69 1551.89 1307.99 1551.89 1294.33Z" fill="#153866"/>
<path d="M1691.93 1156.7C1682.03 1156.7 1673.8 1153.57 1667.25 1147.29C1660.69 1141 1657.42 1133.17 1657.42 1123.79C1657.42 1114.43 1660.69 1106.62 1667.25 1100.34C1673.8 1094.05 1682.03 1090.9 1691.93 1090.9C1701.83 1090.9 1710.06 1094.05 1716.6 1100.34C1723.15 1106.62 1726.43 1114.43 1726.43 1123.79C1726.43 1133.17 1723.15 1141 1716.6 1147.29C1710.06 1153.57 1701.83 1156.7 1691.93 1156.7ZM1719.62 1183.18V1405.48H1663.44V1183.18H1719.62Z" fill="#153866"/>
<path d="M1898.18 1179.97C1924.66 1179.97 1946.06 1188.34 1962.38 1205.05C1978.69 1221.77 1986.85 1245.12 1986.85 1275.08V1405.48H1930.67V1282.71C1930.67 1265.04 1926.26 1251.46 1917.43 1241.96C1908.6 1232.47 1896.57 1227.72 1881.33 1227.72C1865.81 1227.72 1853.57 1232.47 1844.6 1241.96C1835.64 1251.46 1831.17 1265.04 1831.17 1282.71V1405.48H1774.99V1183.18H1831.17V1210.86C1838.65 1201.24 1848.21 1193.69 1859.85 1188.2C1871.48 1182.72 1884.26 1179.97 1898.18 1179.97Z" fill="#153866"/>
<path d="M2105.62 1229.34V1336.87C2105.62 1344.36 2107.42 1349.77 2111.04 1353.12C2114.65 1356.46 2120.73 1358.14 2129.31 1358.14H2155.39V1405.48H2120.06C2072.71 1405.48 2049.05 1382.48 2049.05 1336.47V1229.34H2022.57V1183.18H2049.05V1128.21H2105.62V1183.18H2155.39V1229.34H2105.62Z" fill="#153866"/>
<path d="M2181.46 1293.54C2181.46 1271.08 2185.94 1251.15 2194.9 1233.76C2203.86 1216.36 2216.03 1202.98 2231.42 1193.62C2246.8 1184.26 2263.98 1179.58 2282.97 1179.58C2299.56 1179.58 2314.08 1182.93 2326.51 1189.62C2338.95 1196.3 2348.91 1204.72 2356.4 1214.88V1183.18H2412.98V1405.48H2356.4V1372.99C2349.18 1383.42 2339.21 1392.04 2326.51 1398.86C2313.8 1405.68 2299.16 1409.09 2282.58 1409.09C2263.85 1409.09 2246.8 1404.28 2231.42 1394.65C2216.03 1385.02 2203.86 1371.44 2194.9 1353.93C2185.94 1336.4 2181.46 1316.28 2181.46 1293.54ZM2356.4 1294.33C2356.4 1280.7 2353.72 1269 2348.38 1259.23C2343.03 1249.47 2335.81 1241.98 2326.72 1236.76C2317.62 1231.54 2307.85 1228.92 2297.43 1228.92C2286.98 1228.92 2277.35 1231.47 2268.51 1236.55C2259.69 1241.63 2252.54 1249.06 2247.06 1258.82C2241.57 1268.58 2238.83 1280.16 2238.83 1293.54C2238.83 1306.91 2241.57 1318.62 2247.06 1328.64C2252.54 1338.67 2259.77 1346.36 2268.72 1351.72C2277.69 1357.07 2287.26 1359.74 2297.43 1359.74C2307.85 1359.74 2317.62 1357.14 2326.72 1351.93C2335.81 1346.71 2343.03 1339.22 2348.38 1329.45C2353.72 1319.69 2356.4 1307.99 2356.4 1294.33Z" fill="#153866"/>
<path d="M2591.14 1179.97C2617.62 1179.97 2639.02 1188.34 2655.34 1205.05C2671.66 1221.77 2679.82 1245.12 2679.82 1275.08V1405.48H2623.64V1282.71C2623.64 1265.04 2619.22 1251.46 2610.39 1241.96C2601.57 1232.47 2589.54 1227.72 2574.29 1227.72C2558.78 1227.72 2546.53 1232.47 2537.56 1241.96C2528.61 1251.46 2524.13 1265.04 2524.13 1282.71V1405.48H2467.95V1183.18H2524.13V1210.86C2531.61 1201.24 2541.17 1193.69 2552.81 1188.2C2564.45 1182.72 2577.23 1179.97 2591.14 1179.97Z" fill="#153866"/>
<path d="M2718.74 1293.54C2718.74 1271.08 2723.22 1251.15 2732.18 1233.76C2741.13 1216.36 2753.3 1202.98 2768.69 1193.62C2784.08 1184.26 2801.26 1179.58 2820.25 1179.58C2836.84 1179.58 2851.35 1182.93 2863.78 1189.62C2876.23 1196.3 2886.19 1204.72 2893.68 1214.88V1183.18H2950.25V1405.48H2893.68V1372.99C2886.45 1383.42 2876.49 1392.04 2863.78 1398.86C2851.08 1405.68 2836.43 1409.09 2819.85 1409.09C2801.13 1409.09 2784.08 1404.28 2768.69 1394.65C2753.3 1385.02 2741.13 1371.44 2732.18 1353.93C2723.22 1336.4 2718.74 1316.28 2718.74 1293.54ZM2893.68 1294.33C2893.68 1280.7 2891 1269 2885.66 1259.23C2880.31 1249.47 2873.08 1241.98 2863.99 1236.76C2854.89 1231.54 2845.13 1228.92 2834.7 1228.92C2824.26 1228.92 2814.62 1231.47 2805.79 1236.55C2796.97 1241.63 2789.82 1249.06 2784.34 1258.82C2778.85 1268.58 2776.11 1280.16 2776.11 1293.54C2776.11 1306.91 2778.85 1318.62 2784.34 1328.64C2789.82 1338.67 2797.04 1346.36 2806 1351.72C2814.97 1357.07 2824.54 1359.74 2834.7 1359.74C2845.13 1359.74 2854.89 1357.14 2863.99 1351.93C2873.08 1346.71 2880.31 1339.22 2885.66 1329.45C2891 1319.69 2893.68 1307.99 2893.68 1294.33Z" fill="#153866"/>
<path d="M3128.42 1179.97C3154.9 1179.97 3176.3 1188.34 3192.62 1205.05C3208.93 1221.77 3217.09 1245.12 3217.09 1275.08V1405.48H3160.91V1282.71C3160.91 1265.04 3156.5 1251.46 3147.66 1241.96C3138.84 1232.47 3126.81 1227.72 3111.57 1227.72C3096.05 1227.72 3083.81 1232.47 3074.84 1241.96C3065.88 1251.46 3061.41 1265.04 3061.41 1282.71V1405.48H3005.23V1183.18H3061.41V1210.86C3068.89 1201.24 3078.45 1193.69 3090.09 1188.2C3101.72 1182.72 3114.5 1179.97 3128.42 1179.97Z" fill="#153866"/>
<path d="M3256.02 1294.33C3256.02 1271.34 3260.69 1251.21 3270.06 1233.97C3279.42 1216.71 3292.39 1203.32 3308.97 1193.82C3325.56 1184.33 3344.56 1179.58 3365.96 1179.58C3393.51 1179.58 3416.31 1186.47 3434.37 1200.24C3452.42 1214.02 3464.52 1233.34 3470.68 1258.21H3410.1C3406.89 1248.59 3401.48 1241.04 3393.85 1235.55C3386.23 1230.06 3376.79 1227.32 3365.54 1227.32C3349.51 1227.32 3336.8 1233.14 3327.42 1244.78C3318.06 1256.42 3313.39 1272.93 3313.39 1294.33C3313.39 1315.47 3318.06 1331.86 3327.42 1343.49C3336.8 1355.13 3349.51 1360.95 3365.54 1360.95C3388.29 1360.95 3403.14 1350.78 3410.1 1330.45H3470.68C3464.52 1354.52 3452.35 1373.64 3434.16 1387.82C3415.98 1402 3393.25 1409.09 3365.96 1409.09C3344.56 1409.09 3325.56 1404.35 3308.97 1394.86C3292.39 1385.36 3279.42 1371.99 3270.06 1354.74C3260.69 1337.48 3256.02 1317.34 3256.02 1294.33Z" fill="#153866"/>
<path d="M3718.67 1289.52C3718.67 1297.55 3718.13 1304.77 3717.06 1311.18H3554.54C3555.88 1327.24 3561.49 1339.82 3571.39 1348.91C3581.29 1358.01 3593.46 1362.55 3607.91 1362.55C3628.78 1362.55 3643.62 1353.59 3652.45 1335.66H3713.04C3706.63 1357.06 3694.32 1374.65 3676.13 1388.42C3657.94 1402.2 3635.6 1409.09 3609.12 1409.09C3587.72 1409.09 3568.52 1404.35 3551.52 1394.86C3534.54 1385.36 3521.3 1371.92 3511.8 1354.53C3502.31 1337.15 3497.57 1317.08 3497.57 1294.33C3497.57 1271.34 3502.25 1251.15 3511.61 1233.76C3520.97 1216.36 3534.07 1202.98 3550.92 1193.62C3567.78 1184.26 3587.17 1179.58 3609.12 1179.58C3630.25 1179.58 3649.18 1184.13 3665.88 1193.22C3682.6 1202.32 3695.58 1215.23 3704.81 1231.94C3714.05 1248.67 3718.67 1267.86 3718.67 1289.52ZM3660.47 1273.46C3660.2 1259.02 3654.99 1247.45 3644.82 1238.76C3634.66 1230.06 3622.22 1225.72 3607.52 1225.72C3593.6 1225.72 3581.89 1229.93 3572.39 1238.36C3562.9 1246.79 3557.07 1258.49 3554.94 1273.46H3660.47Z" fill="#153866"/>
<path d="M1315.33 1562.44L1284.71 1672.05H1258.79L1238.21 1594L1216.72 1672.05L1190.95 1672.22L1161.43 1562.44H1184.99L1204.3 1647.56L1226.61 1562.44H1251.11L1272.15 1647.08L1291.62 1562.44H1315.33Z" fill="#153866"/>
<path d="M1410.49 1626.67C1410.49 1629.81 1410.29 1632.63 1409.87 1635.14H1346.25C1346.78 1641.43 1348.98 1646.36 1352.86 1649.91C1356.73 1653.47 1361.49 1655.24 1367.15 1655.24C1375.31 1655.24 1381.12 1651.74 1384.58 1644.73H1408.29C1405.77 1653.1 1400.95 1659.99 1393.83 1665.39C1386.72 1670.78 1377.98 1673.47 1367.62 1673.47C1359.25 1673.47 1351.74 1671.62 1345.09 1667.91C1338.43 1664.19 1333.24 1658.93 1329.53 1652.12C1325.82 1645.32 1323.96 1637.47 1323.96 1628.56C1323.96 1619.55 1325.8 1611.64 1329.46 1604.83C1333.13 1598.03 1338.25 1592.8 1344.84 1589.15C1351.43 1585.48 1359.03 1583.65 1367.62 1583.65C1375.88 1583.65 1383.29 1585.43 1389.83 1588.98C1396.38 1592.54 1401.46 1597.6 1405.08 1604.15C1408.69 1610.69 1410.49 1618.2 1410.49 1626.67ZM1387.73 1620.4C1387.61 1614.74 1385.57 1610.22 1381.58 1606.81C1377.61 1603.41 1372.74 1601.71 1366.98 1601.71C1361.53 1601.71 1356.95 1603.36 1353.23 1606.65C1349.52 1609.94 1347.25 1614.52 1346.42 1620.4H1387.73Z" fill="#153866"/>
<path d="M1458.23 1628.25C1458.23 1619.45 1459.98 1611.64 1463.48 1604.83C1466.99 1598.03 1471.75 1592.8 1477.77 1589.15C1483.79 1585.48 1490.52 1583.65 1497.95 1583.65C1504.45 1583.65 1510.13 1584.96 1514.99 1587.57C1519.87 1590.18 1523.77 1593.48 1526.7 1597.46V1585.05H1548.84V1672.05H1526.7V1659.33C1523.86 1663.41 1519.96 1666.8 1514.99 1669.47C1510.02 1672.14 1504.29 1673.47 1497.81 1673.47C1490.47 1673.47 1483.79 1671.59 1477.77 1667.83C1471.75 1664.05 1466.99 1658.73 1463.48 1651.87C1459.98 1645.01 1458.23 1637.14 1458.23 1628.25ZM1526.7 1628.56C1526.7 1623.22 1525.65 1618.63 1523.55 1614.81C1521.45 1611 1518.63 1608.06 1515.07 1606.02C1511.52 1603.98 1507.7 1602.96 1503.62 1602.96C1499.53 1602.96 1495.76 1603.95 1492.31 1605.94C1488.85 1607.93 1486.04 1610.83 1483.89 1614.67C1481.75 1618.49 1480.68 1623.01 1480.68 1628.25C1480.68 1633.49 1481.75 1638.07 1483.89 1642C1486.04 1645.91 1488.87 1648.92 1492.37 1651.02C1495.88 1653.11 1499.63 1654.16 1503.62 1654.16C1507.7 1654.16 1511.52 1653.14 1515.07 1651.1C1518.63 1649.06 1521.45 1646.13 1523.55 1642.31C1525.65 1638.48 1526.7 1633.89 1526.7 1628.56Z" fill="#153866"/>
<path d="M1592.34 1598.56C1595.16 1593.96 1598.84 1590.35 1603.4 1587.73C1607.95 1585.11 1613.16 1583.8 1619.02 1583.8V1606.88H1613.21C1606.31 1606.88 1601.1 1608.5 1597.59 1611.75C1594.09 1615 1592.34 1620.66 1592.34 1628.71V1672.06H1570.34V1585.05H1592.34V1598.56Z" fill="#153866"/>
<path d="M1714.67 1626.67C1714.67 1629.81 1714.46 1632.63 1714.04 1635.14H1650.43C1650.95 1641.43 1653.16 1646.36 1657.03 1649.91C1660.9 1653.47 1665.66 1655.24 1671.32 1655.24C1679.49 1655.24 1685.3 1651.74 1688.76 1644.73H1712.46C1709.95 1653.1 1705.13 1659.99 1698 1665.39C1690.89 1670.78 1682.16 1673.47 1671.8 1673.47C1663.43 1673.47 1655.91 1671.62 1649.26 1667.91C1642.61 1664.19 1637.42 1658.93 1633.7 1652.12C1629.99 1645.32 1628.14 1637.47 1628.14 1628.56C1628.14 1619.55 1629.97 1611.64 1633.64 1604.83C1637.3 1598.03 1642.43 1592.8 1649.01 1589.15C1655.6 1585.48 1663.2 1583.65 1671.8 1583.65C1680.06 1583.65 1687.46 1585.43 1694 1588.98C1700.56 1592.54 1705.64 1597.6 1709.25 1604.15C1712.86 1610.69 1714.67 1618.2 1714.67 1626.67ZM1691.9 1620.4C1691.79 1614.74 1689.74 1610.22 1685.76 1606.81C1681.78 1603.41 1676.91 1601.71 1671.15 1601.71C1665.71 1601.71 1661.12 1603.36 1657.41 1606.65C1653.7 1609.94 1651.43 1614.52 1650.59 1620.4H1691.9Z" fill="#153866"/>
<path d="M1790.04 1562.44V1672.05H1768.05V1562.44H1790.04Z" fill="#153866"/>
<path d="M1919.75 1583.8C1930.43 1583.8 1939.04 1587.07 1945.58 1593.61C1952.12 1600.15 1955.39 1609.29 1955.39 1621.02V1672.06H1933.42V1624C1933.42 1617.2 1931.69 1611.99 1928.23 1608.38C1924.77 1604.77 1920.06 1602.96 1914.11 1602.96C1908.13 1602.96 1903.39 1604.77 1899.88 1608.38C1896.38 1611.99 1894.63 1617.2 1894.63 1624V1672.06H1872.63V1624C1872.63 1617.2 1870.9 1611.99 1867.45 1608.38C1864 1604.77 1859.29 1602.96 1853.32 1602.96C1847.25 1602.96 1842.46 1604.77 1838.95 1608.38C1835.45 1611.99 1833.7 1617.2 1833.7 1624V1672.06H1811.7V1585.05H1833.7V1595.59C1836.52 1591.92 1840.15 1589.04 1844.59 1586.94C1849.05 1584.85 1853.95 1583.8 1859.3 1583.8C1866.1 1583.8 1872.17 1585.24 1877.51 1588.13C1882.85 1591 1886.99 1595.11 1889.92 1600.44C1892.74 1595.41 1896.84 1591.39 1902.23 1588.36C1907.63 1585.32 1913.47 1583.8 1919.75 1583.8Z" fill="#153866"/>
<path d="M1998.27 1597.63C2001.09 1593.64 2004.98 1590.32 2009.96 1587.65C2014.93 1584.98 2020.61 1583.65 2027 1583.65C2034.44 1583.65 2041.17 1585.48 2047.18 1589.15C2053.21 1592.8 2057.97 1598.01 2061.47 1604.77C2064.98 1611.52 2066.74 1619.35 2066.74 1628.25C2066.74 1637.14 2064.98 1645.01 2061.47 1651.87C2057.97 1658.73 2053.21 1664.05 2047.18 1667.83C2041.17 1671.59 2034.44 1673.47 2027 1673.47C2020.61 1673.47 2014.98 1672.16 2010.1 1669.56C2005.24 1666.93 2001.3 1663.63 1998.27 1659.64V1713.51H1976.27V1585.05H1998.27V1597.63ZM2044.29 1628.25C2044.29 1623.01 2043.21 1618.49 2041.06 1614.67C2038.9 1610.83 2036.07 1607.93 2032.56 1605.94C2029.06 1603.95 2025.27 1602.96 2021.18 1602.96C2017.21 1602.96 2013.47 1603.98 2009.96 1606.02C2006.46 1608.06 2003.63 1611.02 2001.48 1614.9C1999.34 1618.77 1998.27 1623.33 1998.27 1628.56C1998.27 1633.8 1999.34 1638.35 2001.48 1642.23C2003.63 1646.1 2006.46 1649.06 2009.96 1651.1C2013.47 1653.14 2017.21 1654.16 2021.18 1654.16C2025.27 1654.16 2029.06 1653.11 2032.56 1651.02C2036.07 1648.92 2038.9 1645.93 2041.06 1642.06C2043.21 1638.18 2044.29 1633.58 2044.29 1628.25Z" fill="#153866"/>
<path d="M2104.74 1598.56C2107.56 1593.96 2111.24 1590.35 2115.8 1587.73C2120.35 1585.11 2125.56 1583.8 2131.42 1583.8V1606.88H2125.61C2118.71 1606.88 2113.5 1608.5 2109.99 1611.75C2106.49 1615 2104.74 1620.66 2104.74 1628.71V1672.06H2082.74V1585.05H2104.74V1598.56Z" fill="#153866"/>
<path d="M2184.83 1673.47C2176.45 1673.47 2168.91 1671.62 2162.2 1667.91C2155.51 1664.19 2150.25 1658.93 2146.41 1652.12C2142.59 1645.32 2140.69 1637.47 2140.69 1628.56C2140.69 1619.66 2142.65 1611.81 2146.58 1605C2150.51 1598.2 2155.88 1592.94 2162.68 1589.23C2169.48 1585.51 2177.08 1583.65 2185.45 1583.65C2193.82 1583.65 2201.41 1585.51 2208.22 1589.23C2215.02 1592.94 2220.39 1598.2 2224.32 1605C2228.25 1611.81 2230.21 1619.66 2230.21 1628.56C2230.21 1637.47 2228.19 1645.32 2224.15 1652.12C2220.12 1658.93 2214.68 1664.19 2207.82 1667.91C2200.96 1671.62 2193.29 1673.47 2184.83 1673.47ZM2184.83 1654.31C2188.79 1654.31 2192.53 1653.34 2196.03 1651.41C2199.54 1649.47 2202.35 1646.56 2204.45 1642.68C2206.54 1638.81 2207.59 1634.1 2207.59 1628.56C2207.59 1620.29 2205.42 1613.93 2201.07 1609.48C2196.72 1605.02 2191.41 1602.79 2185.14 1602.79C2178.86 1602.79 2173.6 1605.02 2169.35 1609.48C2165.11 1613.93 2162.99 1620.29 2162.99 1628.56C2162.99 1636.83 2165.06 1643.18 2169.18 1647.64C2173.32 1652.09 2178.53 1654.31 2184.83 1654.31Z" fill="#153866"/>
<path d="M2282.66 1651.79L2304.63 1585.05H2328.03L2295.84 1672.06H2269.14L2237.1 1585.05H2260.66L2282.66 1651.79Z" fill="#153866"/>
<path d="M2351.58 1574.69C2347.72 1574.69 2344.5 1573.46 2341.94 1571.01C2339.36 1568.54 2338.08 1565.48 2338.08 1561.82C2338.08 1558.15 2339.36 1555.09 2341.94 1552.63C2344.5 1550.16 2347.72 1548.93 2351.58 1548.93C2355.45 1548.93 2358.67 1550.16 2361.25 1552.63C2363.81 1555.09 2365.1 1558.15 2365.1 1561.82C2365.1 1565.48 2363.81 1568.54 2361.25 1571.01C2358.67 1573.46 2355.45 1574.69 2351.58 1574.69ZM2362.43 1585.05V1672.05H2340.44V1585.05H2362.43Z" fill="#153866"/>
<path d="M2432.31 1583.8C2442.67 1583.8 2451.05 1587.07 2457.44 1593.61C2463.82 1600.15 2467.02 1609.29 2467.02 1621.02V1672.06H2445.02V1624C2445.02 1617.08 2443.29 1611.77 2439.83 1608.06C2436.39 1604.35 2431.68 1602.48 2425.71 1602.48C2419.64 1602.48 2414.85 1604.35 2411.34 1608.06C2407.84 1611.77 2406.09 1617.08 2406.09 1624V1672.06H2384.09V1585.05H2406.09V1595.9C2409.01 1592.12 2412.76 1589.16 2417.32 1587.02C2421.87 1584.87 2426.87 1583.8 2432.31 1583.8Z" fill="#153866"/>
<path d="M2521.97 1583.65C2528.47 1583.65 2534.18 1584.94 2539.09 1587.5C2544.01 1590.06 2547.88 1593.38 2550.71 1597.46V1585.05H2572.86V1672.68C2572.86 1680.75 2571.23 1687.95 2567.98 1694.28C2564.73 1700.61 2559.86 1705.63 2553.38 1709.34C2546.89 1713.06 2539.04 1714.92 2529.82 1714.92C2517.47 1714.92 2507.35 1712.04 2499.43 1706.28C2491.52 1700.53 2487.06 1692.68 2486.01 1682.74H2507.85C2509 1686.71 2511.48 1689.87 2515.3 1692.22C2519.12 1694.58 2523.75 1695.76 2529.2 1695.76C2535.58 1695.76 2540.76 1693.85 2544.74 1690.03C2548.72 1686.21 2550.71 1680.43 2550.71 1672.68V1659.18C2547.88 1663.26 2543.98 1666.67 2539.01 1669.39C2534.03 1672.11 2528.35 1673.47 2521.97 1673.47C2514.64 1673.47 2507.93 1671.59 2501.87 1667.83C2495.79 1664.05 2491 1658.73 2487.49 1651.87C2483.99 1645.01 2482.24 1637.14 2482.24 1628.25C2482.24 1619.45 2483.99 1611.64 2487.49 1604.83C2491 1598.03 2495.77 1592.8 2501.78 1589.15C2507.81 1585.48 2514.54 1583.65 2521.97 1583.65ZM2550.71 1628.56C2550.71 1623.22 2549.66 1618.63 2547.57 1614.81C2545.47 1611 2542.64 1608.06 2539.09 1606.02C2535.53 1603.98 2531.72 1602.96 2527.63 1602.96C2523.55 1602.96 2519.78 1603.95 2516.32 1605.94C2512.87 1607.93 2510.06 1610.83 2507.91 1614.67C2505.77 1618.49 2504.7 1623.01 2504.7 1628.25C2504.7 1633.49 2505.77 1638.07 2507.91 1642C2510.06 1645.91 2512.89 1648.92 2516.39 1651.02C2519.9 1653.11 2523.65 1654.16 2527.63 1654.16C2531.72 1654.16 2535.53 1653.14 2539.09 1651.1C2542.64 1649.06 2545.47 1646.13 2547.57 1642.31C2549.66 1638.48 2550.71 1633.89 2550.71 1628.56Z" fill="#153866"/>
<path d="M2670.37 1673.47C2662 1673.47 2654.46 1671.62 2647.75 1667.91C2641.05 1664.19 2635.79 1658.93 2631.96 1652.12C2628.14 1645.32 2626.23 1637.47 2626.23 1628.56C2626.23 1619.66 2628.2 1611.81 2632.13 1605C2636.06 1598.2 2641.42 1592.94 2648.23 1589.23C2655.03 1585.51 2662.62 1583.65 2671 1583.65C2679.37 1583.65 2686.96 1585.51 2693.77 1589.23C2700.57 1592.94 2705.94 1598.2 2709.87 1605C2713.79 1611.81 2715.76 1619.66 2715.76 1628.56C2715.76 1637.47 2713.74 1645.32 2709.7 1652.12C2705.67 1658.93 2700.23 1664.19 2693.37 1667.91C2686.51 1671.62 2678.84 1673.47 2670.37 1673.47ZM2670.37 1654.31C2674.34 1654.31 2678.08 1653.34 2681.58 1651.41C2685.09 1649.47 2687.9 1646.56 2690 1642.68C2692.09 1638.81 2693.14 1634.1 2693.14 1628.56C2693.14 1620.29 2690.96 1613.93 2686.62 1609.48C2682.27 1605.02 2676.96 1602.79 2670.69 1602.79C2664.41 1602.79 2659.15 1605.02 2654.9 1609.48C2650.66 1613.93 2648.54 1620.29 2648.54 1628.56C2648.54 1636.83 2650.61 1643.18 2654.73 1647.64C2658.86 1652.09 2664.08 1654.31 2670.37 1654.31Z" fill="#153866"/>
<path d="M2814.05 1585.05V1672.05H2791.91V1661.06C2789.09 1664.84 2785.4 1667.8 2780.85 1669.95C2776.29 1672.09 2771.34 1673.16 2766 1673.16C2759.19 1673.16 2753.17 1671.72 2747.94 1668.85C2742.7 1665.96 2738.59 1661.72 2735.61 1656.12C2732.62 1650.51 2731.13 1643.84 2731.13 1636.1V1585.05H2753.13V1632.96C2753.13 1639.86 2754.85 1645.17 2758.31 1648.89C2761.77 1652.61 2766.48 1654.47 2772.44 1654.47C2778.52 1654.47 2783.28 1652.61 2786.73 1648.89C2790.18 1645.17 2791.91 1639.86 2791.91 1632.96V1585.05H2814.05Z" fill="#153866"/>
<path d="M2857.72 1598.56C2860.53 1593.96 2864.22 1590.35 2868.78 1587.73C2873.33 1585.11 2878.54 1583.8 2884.4 1583.8V1606.88H2878.59C2871.68 1606.88 2866.48 1608.5 2862.97 1611.75C2859.47 1615 2857.72 1620.66 2857.72 1628.71V1672.06H2835.72V1585.05H2857.72V1598.56Z" fill="#153866"/>
<path d="M3083.06 1562.44L3052.44 1672.05H3026.52L3005.94 1594L2984.45 1672.05L2958.68 1672.22L2929.16 1562.44H2952.72L2972.03 1647.56L2994.34 1562.44H3018.84L3039.88 1647.08L3059.35 1562.44H3083.06Z" fill="#153866"/>
<path d="M3178.22 1626.67C3178.22 1629.81 3178.01 1632.63 3177.6 1635.14H3113.98C3114.51 1641.43 3116.71 1646.36 3120.58 1649.91C3124.46 1653.47 3129.22 1655.24 3134.87 1655.24C3143.04 1655.24 3148.85 1651.74 3152.31 1644.73H3176.02C3173.5 1653.1 3168.68 1659.99 3161.56 1665.39C3154.45 1670.78 3145.71 1673.47 3135.35 1673.47C3126.98 1673.47 3119.47 1671.62 3112.82 1667.91C3106.16 1664.19 3100.97 1658.93 3097.25 1652.12C3093.55 1645.32 3091.69 1637.47 3091.69 1628.56C3091.69 1619.55 3093.53 1611.64 3097.19 1604.83C3100.86 1598.03 3105.98 1592.8 3112.57 1589.15C3119.16 1585.48 3126.76 1583.65 3135.35 1583.65C3143.61 1583.65 3151.02 1585.43 3157.56 1588.98C3164.11 1592.54 3169.19 1597.6 3172.81 1604.15C3176.42 1610.69 3178.22 1618.2 3178.22 1626.67ZM3155.46 1620.4C3155.34 1614.74 3153.29 1610.22 3149.31 1606.81C3145.34 1603.41 3140.47 1601.71 3134.71 1601.71C3129.26 1601.71 3124.68 1603.36 3120.96 1606.65C3117.25 1609.94 3114.98 1614.52 3114.15 1620.4H3155.46Z" fill="#153866"/>
<path d="M3216.22 1597.77C3219.04 1593.58 3222.94 1590.18 3227.91 1587.57C3232.88 1584.96 3238.56 1583.65 3244.95 1583.65C3252.39 1583.65 3259.12 1585.48 3265.13 1589.15C3271.16 1592.8 3275.93 1598.01 3279.42 1604.77C3282.93 1611.52 3284.69 1619.35 3284.69 1628.25C3284.69 1637.14 3282.93 1645.01 3279.42 1651.87C3275.93 1658.73 3271.16 1664.05 3265.13 1667.83C3259.12 1671.59 3252.39 1673.47 3244.95 1673.47C3238.46 1673.47 3232.78 1672.18 3227.91 1669.62C3223.05 1667.05 3219.15 1663.72 3216.22 1659.64V1672.05H3194.23V1555.84H3216.22V1597.77ZM3262.24 1628.25C3262.24 1623.01 3261.16 1618.49 3259.01 1614.67C3256.85 1610.83 3254.02 1607.93 3250.51 1605.94C3247.01 1603.95 3243.22 1602.96 3239.14 1602.96C3235.16 1602.96 3231.42 1603.98 3227.91 1606.02C3224.41 1608.06 3221.58 1611.02 3219.43 1614.9C3217.29 1618.77 3216.22 1623.33 3216.22 1628.56C3216.22 1633.8 3217.29 1638.35 3219.43 1642.23C3221.58 1646.1 3224.41 1649.06 3227.91 1651.1C3231.42 1653.14 3235.16 1654.16 3239.14 1654.16C3243.22 1654.16 3247.01 1653.11 3250.51 1651.02C3254.02 1648.92 3256.85 1645.93 3259.01 1642.06C3261.16 1638.18 3262.24 1633.58 3262.24 1628.25Z" fill="#153866"/>
<path d="M3333.98 1673.47C3326.87 1673.47 3320.49 1672.19 3314.84 1669.62C3309.18 1667.05 3304.71 1663.57 3301.4 1659.18C3298.11 1654.78 3296.31 1649.91 3295.99 1644.58H3318.13C3318.55 1647.93 3320.19 1650.7 3323.07 1652.91C3325.95 1655.11 3329.55 1656.2 3333.84 1656.2C3338.01 1656.2 3341.28 1655.36 3343.65 1653.68C3346.01 1652.01 3347.19 1649.86 3347.19 1647.25C3347.19 1644.41 3345.74 1642.3 3342.86 1640.89C3339.98 1639.48 3335.41 1637.93 3329.13 1636.25C3322.63 1634.68 3317.31 1633.06 3313.17 1631.39C3309.05 1629.72 3305.49 1627.14 3302.51 1623.69C3299.52 1620.23 3298.03 1615.57 3298.03 1609.71C3298.03 1604.89 3299.42 1600.5 3302.2 1596.52C3304.97 1592.54 3308.95 1589.4 3314.13 1587.11C3319.31 1584.81 3325.41 1583.65 3332.42 1583.65C3342.78 1583.65 3351.05 1586.24 3357.23 1591.42C3363.41 1596.6 3366.81 1603.58 3367.44 1612.38H3346.4C3346.08 1608.92 3344.63 1606.17 3342.07 1604.13C3339.51 1602.08 3336.09 1601.06 3331.8 1601.06C3327.81 1601.06 3324.74 1601.8 3322.59 1603.27C3320.45 1604.73 3319.38 1606.77 3319.38 1609.4C3319.38 1612.33 3320.84 1614.56 3323.78 1616.08C3326.72 1617.6 3331.28 1619.14 3337.44 1620.71C3343.73 1622.28 3348.92 1623.91 3353 1625.58C3357.08 1627.25 3360.61 1629.84 3363.58 1633.35C3366.57 1636.85 3368.11 1641.49 3368.23 1647.25C3368.23 1652.28 3366.84 1656.78 3364.06 1660.76C3361.28 1664.74 3357.3 1667.85 3352.13 1670.1C3346.95 1672.35 3340.9 1673.47 3333.98 1673.47Z" fill="#153866"/>
<path d="M3397.42 1574.69C3393.56 1574.69 3390.35 1573.46 3387.78 1571.01C3385.21 1568.54 3383.93 1565.48 3383.93 1561.82C3383.93 1558.15 3385.21 1555.09 3387.78 1552.63C3390.35 1550.16 3393.56 1548.93 3397.42 1548.93C3401.3 1548.93 3404.52 1550.16 3407.09 1552.63C3409.66 1555.09 3410.94 1558.15 3410.94 1561.82C3410.94 1565.48 3409.66 1568.54 3407.09 1571.01C3404.52 1573.46 3401.3 1574.69 3397.42 1574.69ZM3408.28 1585.05V1672.05H3386.28V1585.05H3408.28Z" fill="#153866"/>
<path d="M3455.54 1603.11V1645.2C3455.54 1648.14 3456.24 1650.26 3457.66 1651.56C3459.08 1652.86 3461.46 1653.52 3464.81 1653.52H3475.01V1672.05H3461.18C3442.65 1672.05 3433.39 1663.05 3433.39 1645.04V1603.11H3423.02V1585.05H3433.39V1563.55H3455.54V1585.05H3475.01V1603.11H3455.54Z" fill="#153866"/>
<path d="M3571.75 1626.67C3571.75 1629.81 3571.54 1632.63 3571.12 1635.14H3507.51C3508.03 1641.43 3510.24 1646.36 3514.11 1649.91C3517.99 1653.47 3522.75 1655.24 3528.4 1655.24C3536.57 1655.24 3542.38 1651.74 3545.84 1644.73H3569.54C3567.03 1653.1 3562.21 1659.99 3555.09 1665.39C3547.97 1670.78 3539.24 1673.47 3528.88 1673.47C3520.51 1673.47 3512.99 1671.62 3506.34 1667.91C3499.69 1664.19 3494.5 1658.93 3490.78 1652.12C3487.07 1645.32 3485.22 1637.47 3485.22 1628.56C3485.22 1619.55 3487.05 1611.64 3490.72 1604.83C3494.38 1598.03 3499.51 1592.8 3506.09 1589.15C3512.68 1585.48 3520.28 1583.65 3528.88 1583.65C3537.14 1583.65 3544.54 1585.43 3551.09 1588.98C3557.64 1592.54 3562.72 1597.6 3566.33 1604.15C3569.94 1610.69 3571.75 1618.2 3571.75 1626.67ZM3548.98 1620.4C3548.87 1614.74 3546.82 1610.22 3542.84 1606.81C3538.86 1603.41 3533.99 1601.71 3528.23 1601.71C3522.79 1601.71 3518.2 1603.36 3514.49 1606.65C3510.78 1609.94 3508.51 1614.52 3507.67 1620.4H3548.98Z" fill="#153866"/>
</svg>
