<svg width="41" height="29" viewBox="0 0 41 29" fill="none" xmlns="http://www.w3.org/2000/svg">
<path d="M21.6476 1.46136C21.4639 1.2134 21.2182 1.01074 20.9316 0.870856C20.6451 0.730969 20.3263 0.658042 20.0028 0.658356C19.6792 0.658671 19.3605 0.732217 19.0743 0.87266C18.788 1.0131 18.5426 1.21623 18.3594 1.46456L0.379931 25.6929C0.171818 25.9723 0.049926 26.2995 0.0274945 26.6389C0.00506305 26.9783 0.0829498 27.3169 0.252695 27.618C0.422444 27.919 0.677555 28.1709 0.990317 28.3464C1.30308 28.5219 1.66152 28.6142 2.02671 28.6133L38.0295 28.5784C38.3939 28.5766 38.7508 28.4824 39.062 28.3059C39.3732 28.1294 39.6268 27.8772 39.7956 27.5766C39.9644 27.2759 40.042 26.9381 40.0201 26.5995C39.9981 26.2608 39.8774 25.9342 39.671 25.6547L21.6476 1.46136Z" fill="#CCCCCC" fill-opacity="0.67"/>
</svg>
