<svg width="12" height="12" viewBox="0 0 12 12" fill="none" xmlns="http://www.w3.org/2000/svg">
<path d="M5.50595 10.8556C5.561 10.9484 5.63466 11.0243 5.72058 11.0767C5.8065 11.1291 5.90212 11.1565 5.99919 11.1565C6.09626 11.1565 6.19187 11.1291 6.2778 11.0767C6.36372 11.0243 6.43738 10.9484 6.49243 10.8556L11.8928 1.80085C11.9554 1.69641 11.992 1.57408 11.9988 1.44716C12.0057 1.32023 11.9824 1.19357 11.9315 1.08092C11.8807 0.968273 11.8042 0.873953 11.7105 0.808208C11.6167 0.742463 11.5092 0.707808 11.3996 0.708009H0.598764C0.489461 0.708533 0.38235 0.743633 0.288948 0.809535C0.195546 0.875438 0.119388 0.969648 0.0686635 1.08203C0.0179391 1.19442 -0.00543232 1.32073 0.00106256 1.44739C0.00755745 1.57404 0.0436729 1.69624 0.105525 1.80085L5.50595 10.8556Z" fill="#8B8B8B"/>
</svg>
