<svg width="18" height="13" viewBox="0 0 18 13" fill="none" xmlns="http://www.w3.org/2000/svg">
<path d="M8.31501 12.4922C8.39146 12.5976 8.49375 12.6839 8.61308 12.7435C8.73241 12.8031 8.8652 12.8342 9.00001 12.8342C9.13482 12.8342 9.2676 12.8031 9.38693 12.7435C9.50626 12.6839 9.60856 12.5976 9.68501 12.4922L17.185 2.2005C17.2718 2.08179 17.3227 1.94276 17.3322 1.7985C17.3417 1.65423 17.3094 1.51026 17.2387 1.38223C17.1681 1.25419 17.0619 1.14699 16.9317 1.07226C16.8015 0.997536 16.6522 0.958147 16.5 0.958375H1.50001C1.34821 0.958971 1.19946 0.998866 1.06974 1.07377C0.940028 1.14868 0.834261 1.25575 0.763816 1.38349C0.693371 1.51123 0.660913 1.6548 0.669933 1.79875C0.678953 1.94271 0.729109 2.0816 0.815008 2.2005L8.31501 12.4922Z" fill="black"/>
</svg>
