<svg width="120" height="113" viewBox="0 0 120 113" fill="none" xmlns="http://www.w3.org/2000/svg">
<path d="M20.2417 62.2754C19.808 61.9644 19.3834 61.6422 18.9685 61.3093C19.2649 61.7568 19.6993 62.1037 20.2417 62.2754ZM23.4457 17.5839H96.2953V57.717C98.8489 56.3836 100.22 55.4751 101.16 54.8931V15.2866C101.159 14.6786 100.902 14.0958 100.446 13.6661C99.989 13.2364 99.3697 12.995 98.7241 12.995H21.0097C19.6621 12.995 18.5701 14.0233 18.5701 15.2866V54.9948C19.4953 55.544 20.8237 56.465 23.4457 57.8424V17.5839Z" fill="#161936"/>
<path d="M105.349 54.2151C104.722 53.7439 103.853 53.7462 102.474 54.2151C102.072 54.353 101.665 54.5824 101.16 54.8931C100.221 55.4751 98.8501 56.3836 96.2953 57.717C95.5069 58.1238 94.6477 58.5622 93.6061 59.0538C93.2797 59.2074 92.9653 59.3329 92.6425 59.4798C86.7709 62.0833 81.4897 62.9195 81.4897 62.9195H63.9997C63.6685 62.9195 62.6077 63.1116 62.0989 63.8337C61.5973 64.5546 61.6813 65.7434 61.6813 65.7434V67.7502C62.3125 68.1717 62.9797 68.5492 63.7153 68.7876C68.9881 70.4803 72.5557 69.0045 74.1121 66.9479C75.9325 64.5365 76.8589 63.1862 78.8581 63.8913C80.8573 64.5964 78.8581 69.1797 76.3621 71.5335C73.8601 73.8884 70.8613 75.7699 66.6181 75.7699C64.8349 75.7699 63.1069 75.5179 61.6813 75.232V92.33C61.6813 97.1551 67.1269 99.7338 70.8709 99.7338C74.6137 99.7338 82.1113 97.7359 85.7353 89.2666C89.3557 80.7995 85.4893 69.626 85.4893 69.626C85.4893 69.626 91.3549 67.1502 97.4785 63.5082C103.596 59.864 105.225 56.4503 105.349 55.9711C105.469 55.4886 105.969 54.6874 105.349 54.2151Z" fill="#161936"/>
<path d="M76.3621 71.5324C78.8581 69.1786 80.8573 64.5953 78.8581 63.8902C76.8589 63.1851 75.9325 64.5354 74.1121 66.9468C72.5557 69.0034 68.9881 70.4792 63.7153 68.7865C62.9797 68.5481 62.3125 68.1706 61.6813 67.7491C59.0773 66.0056 57.3049 63.1851 56.0005 63.1851H38.5105C38.5105 63.1851 33.6589 62.4122 28.0897 60.0595C27.5305 59.8222 26.9677 59.5872 26.3965 59.3171C25.4008 58.847 24.4169 58.3549 23.4457 57.8413C20.8237 56.4638 19.4953 55.544 18.5701 54.9937C18.1849 54.7643 17.8585 54.5926 17.5249 54.4796C16.1521 54.0095 15.2773 54.0095 14.6521 54.4796C14.0305 54.9519 14.5273 55.7542 14.6521 56.2344C14.7481 56.6017 15.7477 58.7024 18.9673 61.3081C20.0902 62.2065 21.2783 63.03 22.5229 63.7727C28.6405 67.4192 34.5121 69.8882 34.5121 69.8882C34.5121 69.8882 30.6397 81.0594 34.2661 89.5288C37.8877 97.997 45.3817 100.004 49.1281 100.004C52.8757 100.004 58.3213 97.4083 58.3213 92.5865V74.3585C58.3213 74.3585 59.7037 74.8331 61.6801 75.2297C63.1057 75.5156 64.8337 75.7676 66.6169 75.7676C70.8613 75.7688 73.8601 73.8873 76.3621 71.5324ZM73.2205 38.8505C70.338 38.8508 67.5736 39.9291 65.5353 41.8484C63.497 43.7676 62.3515 46.3706 62.3509 49.0849C62.3509 54.7338 67.2169 59.3182 73.2205 59.3182C79.2181 59.3182 84.0829 54.7338 84.0829 49.0849C84.0829 43.4349 79.2181 38.8505 73.2205 38.8505Z" fill="#161936"/>
<path d="M47.4527 38.8505C41.4527 38.8505 36.5891 43.4349 36.5891 49.0849C36.5891 54.7338 41.4515 59.3182 47.4527 59.3182C53.4563 59.3182 58.3223 54.7338 58.3223 49.0849C58.3223 43.4349 53.4563 38.8505 47.4527 38.8505Z" fill="#161936"/>
</svg>
