<svg width="113" height="122" viewBox="0 0 113 122" fill="none" xmlns="http://www.w3.org/2000/svg">
<path d="M104.282 49.0859H76.0323C75.5468 49.0859 75.1495 49.5148 75.1495 50.0391V55.7578C75.1495 56.282 75.5468 56.7109 76.0323 56.7109H104.282C104.768 56.7109 105.165 56.282 105.165 55.7578V50.0391C105.165 49.5148 104.768 49.0859 104.282 49.0859ZM89.4952 65.2891H76.0323C75.5468 65.2891 75.1495 65.718 75.1495 66.2422V71.9609C75.1495 72.4852 75.5468 72.9141 76.0323 72.9141H89.4952C89.9808 72.9141 90.378 72.4852 90.378 71.9609V66.2422C90.378 65.718 89.9808 65.2891 89.4952 65.2891ZM52.6709 38.4229H47.8927C47.2085 38.4229 46.6567 39.0186 46.6567 39.7572V69.3041C46.6567 69.733 46.8443 70.1262 47.1644 70.3764L63.5957 83.315C64.1475 83.7439 64.9199 83.6248 65.3172 83.0291L68.1532 78.8473V78.8354C68.5505 78.2397 68.4291 77.4057 67.8773 76.9768L53.8958 66.0635V39.7572C53.9068 39.0186 53.344 38.4229 52.6709 38.4229Z" fill="#121531"/>
<path d="M88.811 80.2889H82.4327C81.8147 80.2889 81.2299 80.6344 80.8988 81.2062C79.4973 83.601 77.8641 85.817 75.9882 87.8424C72.7549 91.3332 68.9919 94.0734 64.8095 95.9797C60.4727 97.9574 55.8711 98.9582 51.1259 98.9582C46.3698 98.9582 41.7681 97.9574 37.4424 95.9797C33.26 94.0734 29.497 91.3332 26.2637 87.8424C23.0304 84.3515 20.4924 80.2888 18.7267 75.7734C16.8949 71.1031 15.9679 66.1349 15.9679 61C15.9679 55.865 16.8949 50.9088 18.7267 46.2266C20.4924 41.7111 23.0304 37.6484 26.2637 34.1576C29.497 30.6668 33.26 27.9266 37.4424 26.0203C41.7681 24.0426 46.3808 23.0418 51.1259 23.0418C55.8821 23.0418 60.4838 24.0426 64.8095 26.0203C68.9919 27.9266 72.7549 30.6668 75.9882 34.1576C77.8641 36.183 79.4973 38.399 80.8988 40.7937C81.2299 41.3656 81.8147 41.7111 82.4327 41.7111H88.811C89.5724 41.7111 90.058 40.8533 89.7159 40.1266C82.521 24.674 67.9325 14.6305 51.6446 14.4279C27.7976 14.1062 7.98953 35.1822 7.94539 60.9047C7.90125 86.6748 27.2459 107.584 51.1149 107.584C67.6125 107.584 82.4437 97.5047 89.7159 81.8734C90.058 81.1467 89.5614 80.2889 88.811 80.2889Z" fill="#121531"/>
</svg>
