<svg width="114" height="106" viewBox="0 0 114 106" fill="none" xmlns="http://www.w3.org/2000/svg">
<path d="M49.875 92.75C49.875 92.75 42.75 92.75 42.75 86.125C42.75 79.5 49.875 59.625 78.375 59.625C106.875 59.625 114 79.5 114 86.125C114 92.75 106.875 92.75 106.875 92.75H49.875ZM78.375 53C84.044 53 89.4808 50.906 93.4894 47.1787C97.498 43.4515 99.75 38.3962 99.75 33.125C99.75 27.8538 97.498 22.7985 93.4894 19.0713C89.4808 15.344 84.044 13.25 78.375 13.25C72.706 13.25 67.2692 15.344 63.2606 19.0713C59.252 22.7985 57 27.8538 57 33.125C57 38.3962 59.252 43.4515 63.2606 47.1787C67.2692 50.906 72.706 53 78.375 53Z" fill="#21234D"/>
<path fill-rule="evenodd" clip-rule="evenodd" d="M37.164 92.75C36.1078 90.6818 35.581 88.4142 35.625 86.125C35.625 77.1482 40.47 67.9063 49.419 61.48C44.9523 60.2003 40.2986 59.5745 35.625 59.625C7.125 59.625 0 79.5 0 86.125C0 92.75 7.125 92.75 7.125 92.75H37.164Z" fill="#21234D"/>
<path d="M32.0625 53C36.7867 53 41.3173 51.255 44.6578 48.149C47.9983 45.0429 49.875 40.8301 49.875 36.4375C49.875 32.0449 47.9983 27.8321 44.6578 24.726C41.3173 21.62 36.7867 19.875 32.0625 19.875C27.3383 19.875 22.8077 21.62 19.4672 24.726C16.1267 27.8321 14.25 32.0449 14.25 36.4375C14.25 40.8301 16.1267 45.0429 19.4672 48.149C22.8077 51.255 27.3383 53 32.0625 53Z" fill="#21234D"/>
</svg>
