<svg width="121" height="115" viewBox="0 0 121 115" fill="none" xmlns="http://www.w3.org/2000/svg">
<path d="M74.3645 71.875C79.2347 71.875 83.1874 75.6317 83.1874 80.2604L83.1824 84.87C83.7723 95.3637 75.5644 100.668 60.8377 100.668C46.1665 100.668 37.8124 95.4452 37.8124 85.0521V80.2604C37.8124 75.6317 41.7651 71.875 46.6353 71.875H74.3645ZM18.9062 47.9167H40.9685C40.0888 51.1702 40.1227 54.5861 41.0666 57.8233C42.0106 61.0604 43.8317 64.0056 46.348 66.3646L47.1647 67.0881L46.6353 67.0833C43.6095 67.0823 40.6663 68.0221 38.255 69.7593C35.8436 71.4966 34.0964 73.9358 33.28 76.705L33.1085 76.7098C18.4373 76.7098 10.0833 71.4869 10.0833 61.0938V56.3021C10.0833 51.6733 14.0359 47.9167 18.9062 47.9167ZM102.094 47.9167C106.964 47.9167 110.917 51.6733 110.917 56.3021L110.912 60.9117C111.501 71.4054 103.294 76.7098 88.5669 76.7098L87.7148 76.7002C86.9397 74.0902 85.3379 71.7703 83.1271 70.0557C80.9162 68.3411 78.2036 67.315 75.3577 67.1169L74.3645 67.0833L73.8351 67.0881C76.6338 64.7518 78.695 61.7229 79.789 58.3387C80.8831 54.9546 80.9669 51.3482 80.0313 47.9215L102.094 47.9167ZM60.4999 38.3333C62.4862 38.3333 64.453 38.7052 66.288 39.4276C68.1231 40.15 69.7904 41.2088 71.1949 42.5437C72.5994 43.8785 73.7135 45.4632 74.4736 47.2073C75.2337 48.9513 75.6249 50.8206 75.6249 52.7083C75.6249 54.5961 75.2337 56.4654 74.4736 58.2094C73.7135 59.9535 72.5994 61.5382 71.1949 62.873C69.7904 64.2078 68.1231 65.2667 66.288 65.9891C64.453 66.7115 62.4862 67.0833 60.4999 67.0833C56.4885 67.0833 52.6414 65.5688 49.8049 62.873C46.9684 60.1772 45.3749 56.5208 45.3749 52.7083C45.3749 48.8958 46.9684 45.2395 49.8049 42.5437C52.6414 39.8478 56.4885 38.3333 60.4999 38.3333ZM32.7708 14.375C36.7822 14.375 40.6293 15.8895 43.4657 18.5853C46.3022 21.2812 47.8958 24.9375 47.8958 28.75C47.8958 32.5625 46.3022 36.2188 43.4657 38.9147C40.6293 41.6105 36.7822 43.125 32.7708 43.125C28.7594 43.125 24.9122 41.6105 22.0758 38.9147C19.2393 36.2188 17.6458 32.5625 17.6458 28.75C17.6458 24.9375 19.2393 21.2812 22.0758 18.5853C24.9122 15.8895 28.7594 14.375 32.7708 14.375ZM88.2291 14.375C92.2405 14.375 96.0876 15.8895 98.9241 18.5853C101.761 21.2812 103.354 24.9375 103.354 28.75C103.354 32.5625 101.761 36.2188 98.9241 38.9147C96.0876 41.6105 92.2405 43.125 88.2291 43.125C84.2177 43.125 80.3706 41.6105 77.5341 38.9147C74.6976 36.2188 73.1041 32.5625 73.1041 28.75C73.1041 24.9375 74.6976 21.2812 77.5341 18.5853C80.3706 15.8895 84.2177 14.375 88.2291 14.375Z" fill="#121129"/>
</svg>
